<ttFont>
          <CharString index="0">
            118 199 rmoveto
            -7 7 -2 7 11 vvcurveto
            47 55 31 81 44 34 -6 -14 31 vhcurveto
            -1 -3 rlineto
            -56 -11 -60 -36 -82 hhcurveto
            -29 -25 4 8 -28 hvcurveto
            84 -213 -105 callgsubr
            return
          </CharString>
          <CharString index="1">
            -103 callgsubr
            hstemhm
            return
          </CharString>
          <CharString index="2">
            36 24 39 49 16 42 -23 30 -49 45 -42 16 -35 -21 -37 -49 -23 -45 25 -35 56 -42 37 -14 rrcurveto
            return
          </CharString>
          <CharString index="3">
            45 24 29 35 16 47 -14 47 -44 38 -49 21 -48 -27 -36 -39 -9 134 callgsubr
            -29 51 -17 rrcurveto
            return
          </CharString>
          <CharString index="4">
            rmoveto
            178 158 114 229 231 408 callgsubr
            -184 -188 -151 -138 -220 -229 163 -119 183 hvcurveto
            18 105 rmoveto
            -90 -55 101 164 110 25 76 31 32 hvcurveto
            6 15 18 5 18 hhcurveto
            95 42 -126 -132 -101 -25 -87 -37 -40 hvcurveto
            -4 -10 -10 -4 -17 hhcurveto
            return
          </CharString>
          <CharString index="5">
            51 39 -7 48 -34 40 -40 16 rlinecurve
            -64 -16 -23 -46 -40 vvcurveto
            return
          </CharString>
          <CharString index="6">
            -102 callsubr
            -68 56 -71 80 -34 vhcurveto
            return
          </CharString>
          <CharString index="7">
            31 -83 -28 -14 -25 -16 -22 -17 rlinecurve
            24 callgsubr
            362 hlineto
            1 55 -71 12 -250 623 rlineto
            -174 -436 -26 callsubr
            return
          </CharString>
          <CharString index="8">
            vlineto
            32 16 28 17 25 19 -6 32 rcurveline
            -365 hlineto
            return
          </CharString>
          <CharString index="9">
            -101 callsubr
            endchar
          </CharString>
          <CharString index="10">
            111 201 -4 38 -24 19 -59 22 -44 -8 rlinecurve
            return
          </CharString>
          <CharString index="11">
            vlineto
            -95 callsubr
            return
          </CharString>
          <CharString index="12">
            -95 callgsubr
            186 hlineto
            return
          </CharString>
          <CharString index="13">
            -94 callgsubr
            rlineto
            return
          </CharString>
          <CharString index="14">
            69 -40 100 -53 64 vhcurveto
            -36 25 -38 17 -44 11 -19 -45 rcurveline
            41 -71 19 -62 -59 vvcurveto
            -53 -20 -28 -40 -20 -22 6 10 -19 vhcurveto
            return
          </CharString>
          <CharString index="15">
            132 -83 -40 callsubr
            return
          </CharString>
          <CharString index="16">
            3 0 107.5 -107.5 222.5 59.5 -20 callgsubr
            -104 104 367 callgsubr
            return
          </CharString>
          <CharString index="17">
            261 -20 rmoveto
            149 109 113 158 150 -100 104 -146 -149 -109 -114 -158 -150 100 -103 146 hvcurveto
            -43 203 rmoveto
            -39 -34 4 8 -27 563 callsubr
            11 12 vvcurveto
            51 70 26 139 39 34 -4 -8 27 vhcurveto
            7 -6 4 -11 -12 vvcurveto
            -51 -70 -26 -139 vhcurveto
            return
          </CharString>
          <CharString index="18">
            -44 callsubr
            -60 -32 -75 -48 -80 hhcurveto
            -8 14 -6 16 -6 15 rrcurveto
            return
          </CharString>
          <CharString index="19">
            rmoveto
            40 -54 rlineto
            80 34 56 71 68 vvcurveto
            return
          </CharString>
          <CharString index="20">
            -39 -111 -113 -12 rlineto
            107 74 70 103 111 vvcurveto
            168 -147 126 -197 -200 -141 -127 -180 vhcurveto
            return
          </CharString>
          <CharString index="21">
            rmoveto
            -89 callsubr
            101 26 42 56 63 vvcurveto
            return
          </CharString>
          <CharString index="22">
            132 -58 callgsubr
            return
          </CharString>
          <CharString index="23">
            -104 callgsubr
            endchar
          </CharString>
          <CharString index="24">
            hintmask 01110000
            -107 callsubr
            return
          </CharString>
          <CharString index="25">
            202 -20 rmoveto
            64 53 36 63 37 hvcurveto
            -62 34 60 -37 73 hhcurveto
            104 76 98 132 hvcurveto
            return
          </CharString>
          <CharString index="26">
            -65 83 rlineto
            return
          </CharString>
          <CharString index="27">
            272 -20 rmoveto
            135 119 94 167 172 -127 91 -132 -134 -125 -92 -167 -169 129 -96 135 hvcurveto
            3 98 rmoveto
            -48 -17 70 91 70 9 57 15 23 hvcurveto
            5 7 10 2 10 hhcurveto
            46 17 -74 -93 -71 -8 -59 -20 -17 hvcurveto
            -3 -8 -6 -1 -7 hhcurveto
            return
          </CharString>
          <CharString index="28">
            -151 -17 125 427 callgsubr
            89 -89 284.5 -91 91 hstemhm
            8 188 -188 495 564 callgsubr
            hintmask 11011010
            252 413 319 callgsubr
            -49 -128 -9 rcurveline
            8 45 18 44 30 20 rrcurveto
            79 -424 257 callsubr
            -37 -13 -42 hhcurveto
            hintmask 10100100
            348 callsubr
            249 -1 59 59 rlineto
            170 1 -134 56 -98 hhcurveto
            hintmask 10101010
            -134 -130 -103 -165 hvcurveto
            hintmask 11011010
            -181 159 -97 164 31 vhcurveto
            return
          </CharString>
          <CharString index="29">
            20 callsubr
            hintmask 11011000
            352 callsubr
            hintmask 10111000
            325 78 callgsubr
            -291 vlineto
            hintmask 10111000
            -226 142 -101 179 vhcurveto
            return
          </CharString>
          <CharString index="30">
            rmoveto
            -104 callsubr
            403 -69 callgsubr
          </CharString>
          <CharString index="31">
            vstem
            -107 callsubr
            return
          </CharString>
          <CharString index="32">
            -21 48 -150 -15 109 315 -47 42 rlineto
            -85 -74 -21 -18 -30 hvcurveto
            11 -254 rlineto
            return
          </CharString>
          <CharString index="33">
            1 55 -89 15 rlineto
            512 -99 callsubr
            return
          </CharString>
          <CharString index="34">
            rmoveto
            203 25 callsubr
            -229 hlineto
            -21 -20 -25 -13 -30 hhcurveto
            -14 -11 3 5 -10 hvcurveto
            return
          </CharString>
          <CharString index="35">
            rmoveto
            56 -41 77 41 108 164 -130 57 rlinecurve
            -108 -46 2 -41 39 -28 -6 -56 -38 -50 rlinecurve
            endchar
          </CharString>
          <CharString index="36">
            98 62 rlineto
            28 -13 12 -29 -22 vvcurveto
            -35 -31 -43 -65 -84 -62 74 122 -57 vhcurveto
            -91 -59 rlineto
            -248 111 140 -48 94 hhcurveto
            return
          </CharString>
          <CharString index="37">
            hhcurveto
            16 7 -9 -15 -45 -62 -49 -79 -61 hvcurveto
            129 -132 rlineto
            107 70 65 86 97 vvcurveto
            118 -96 110 -116 return
          </CharString>
          <CharString index="38">
            25 49 rlineto
            return
          </CharString>
          <CharString index="39">
            110 -110 110.5 -110.5 222.5 return
          </CharString>
          <CharString index="40">
            -91 callsubr
            161 callsubr
            return
          </CharString>
          <CharString index="41">
            194 -194 198 -198 408 108 -20 23 -20 return
          </CharString>
          <CharString index="42">
            56 -35 51 -54 44 vhcurveto
            153 return
          </CharString>
          <CharString index="43">
            510 callgsubr
            -82 callgsubr
            579 hlineto
            1 hlineto
            return
          </CharString>
          <CharString index="44">
            hintmask 01110000
            262 callsubr
            hintmask 10110000
            -75 callsubr
            hintmask 01110000
            100 callsubr
            return
          </CharString>
          <CharString index="45">
            79 0 55 193.5 94.5 219 338 callgsubr
            107 210 149 212 hintmask 1101000110000000
            424 577 rmoveto
            28 -30 14 -48 -44 vvcurveto
            -70 -35 -42 -67 -14 -16 2 5 -17 vhcurveto
            hintmask 1110000110000000
            212 vlineto
            -295 -530 146 callsubr
            363 hlineto
            1 55 -75 13 rlineto
            180 vlineto
            48 1 129 -249 rlineto
            248 hlineto
            1 55 -59 10 -132 213 rlineto
            76 37 50 66 79 vvcurveto
            hintmask 1100100110000000
            117 -112 97 -175 vhcurveto
            hintmask 1100001100000000
            -359 -8 rlineto
            hintmask 1100010100000000
            -1 -55 rlineto
            hintmask 1100100100000000
            510 callgsubr
            hintmask 1110000110000000
            -38 callsubr
            return
          </CharString>
          <CharString index="46">
            -21 214 15 -12 12 309 189 -163 163 return
          </CharString>
          <CharString index="47">
            -80 -3 -75 -13 -64 -23 rlinecurve
            2 -49 75 -19 rlineto
            return
          </CharString>
          <CharString index="48">
            -45 -19 93 -93 260 206 239 -90 90 hstemhm
            48 195 140 206 hintmask 10011100
            315 -19 rmoveto
            149 125 74 135 125 -95 54 -90 42 hvcurveto
            -84 39 -77 25 51 vvcurveto
            22 13 30 31 18 vhcurveto
            33 -2 31 -6 30 -11 rrcurveto
            hintmask 10101100
            49 -130 rlineto
            105 hlineto
            hintmask 10011100
            15 59 6 77 3 62 rrcurveto
            23 -58 -96 18 -76 hhcurveto
            -170 -111 -89 -124 -118 100 -55 90 -42 hvcurveto
            140 callgsubr
            rrcurveto
            hintmask 01011100
            -81 149 rlineto
            -90 hlineto
            hintmask 10011100
            -14 -50 -11 -103 5 -47 -1 -2 rcurveline
            -37 76 109 -21 80 hhcurveto
            return
          </CharString>
          <CharString index="49">
            -34 callgsubr
            -35 -38 -24 -114 -14 vhcurveto
            return
          </CharString>
          <CharString index="50">
            325 callgsubr
            395 callgsubr
            hintmask 10001011
            -51 callgsubr
            hintmask 01001011
            223 callsubr
            hintmask 10001011
            -92 callgsubr
            hintmask 10010011
            -1 -55 rlineto
            hintmask 10100011
            115 callgsubr
            hintmask 10001011
            199 228 callsubr
            -514 vlineto
            hintmask 10001011
            -38 callsubr
            return
          </CharString>
          <CharString index="51">
            435 -17 rmoveto
            143 82 -3 45 rlineto
            -1 -24 -13 -1 -16 hhcurveto
            -16 -8 12 14 hvcurveto
            195 vlineto
            56 -2 30 -10 16 vhcurveto
            54 -41 -53 20 -59 hhcurveto
            return
          </CharString>
          <CharString index="52">
            -27 callsubr
            465 callgsubr
            return
          </CharString>
          <CharString index="53">
            22 -1 108.5 308.5 250 -100 100 -88 88 hstemhm
            31 622 hintmask 11001000
            73 416 rmoveto
            114 hlineto
            hintmask 10101000
            49 143 167 14 -372 -483 58 -91 538 1 14 86 9 65 3 84 rlinecurve
            -122 17 -59 -140 -188 -9 rlineto
            hintmask 10011000
            364 475 rlineto
            hintmask 10101000
            -45 88 rlineto
            -536 hlineto
            hintmask 11001000
            -7 -78 0 -97 13 -75 rrcurveto
            return
          </CharString>
          <CharString index="54">
            106 callsubr
            -174 -436 rmoveto
            68 185 68 -185 rlineto
            return
          </CharString>
          <CharString index="55">
            -62 callgsubr
            104 69 rlineto
            return
          </CharString>
          <CharString index="56">
            -7 16 -4 15 -35 callgsubr
            return
          </CharString>
          <CharString index="57">
            -48 callsubr
            rlineto
            return
          </CharString>
          <CharString index="58">
            317 callgsubr
            56 469 callgsubr
            hintmask 01010100
            -56 callsubr
            hintmask 01011000
            54 callsubr
            hintmask 01010100
            -14 callsubr
            return
          </CharString>
          <CharString index="59">
            -82 callgsubr
            377 hlineto
            1 55 return
          </CharString>
          <CharString index="60">
            -25 -49 rlineto
            return
          </CharString>
          <CharString index="61">
            69 -22 rlineto
            -36 69 -5 -100 -75 hhcurveto
            -71 -32 90 148 -45 hvcurveto
            -116 -39 rlineto
            return
          </CharString>
          <CharString index="62">
            vlineto
            -59 53 -60 callsubr
            return
          </CharString>
          <CharString index="63">
            -65 callsubr
            -233 hlineto
            return
          </CharString>
          <CharString index="64">
            -195 -20 92 -71 -21 346 178 -83 83 hstemhm
            32 179 -179 395 -160 183 hintmask 01101010
            234 -20 rmoveto
            137 79 69 89 hvcurveto
            hintmask 01011010
            188 callsubr
            hintmask 01101010
            38 -93 rlineto
            hintmask 01100100
            494 callsubr
            hintmask 10101010
            -139 -92 -68 -94 hvcurveto
            -150 235 -18 -71 vvcurveto
            -10 -5 -13 -10 -8 vhcurveto
            -59 26 -59 37 -56 45 -63 -146 rcurveline
            hintmask 01101010
            -38 74 79 -16 66 hhcurveto
            return
          </CharString>
          <CharString index="65">
            28 56 119 -91 91 hhcurveto
            return
          </CharString>
          <CharString index="66">
            hintmask 10110000
            -94 callsubr
            hintmask 01110000
            -18 callsubr
            return
          </CharString>
          <CharString index="67">
            83 -49 49 return
          </CharString>
          <CharString index="68">
            8 callgsubr
            290 callgsubr
            return
          </CharString>
          <CharString index="69">
            -43 callgsubr
            -25 -19 rrcurveto
            return
          </CharString>
          <CharString index="70">
            132.5 -132.5 210 hintmask 00110001
            245 168 rmoveto
            -82 vlineto
            hintmask 10010001
            -33 -17 -30 -17 -25 -20 6 -32 rcurveline
            380 428 callsubr
            hintmask 01010001
            -10 callsubr
            hintmask 10010010
            -61 callgsubr
            hintmask 00110001
            83 -31 69 -189 -183 vvcurveto
            return
          </CharString>
          <CharString index="71">
            rmoveto
            46 43 7 14 39 hvcurveto
            -29 144 rlineto
            -13 -72 -59 -9 -56 hhcurveto
            -91 -62 23 80 -34 hvcurveto
            43 26 49 29 29 27 12 39 rlinecurve
            return
          </CharString>
          <CharString index="72">
            41 152 -27 42 -49 6 -61 -6 -41 -16 rlinecurve
            return
          </CharString>
          <CharString index="73">
            -15 17 -8 20 19 vvcurveto
            45 45 16 23 -15 vhcurveto
            7 -13 3 -12 -14 vvcurveto
            return
          </CharString>
          <CharString index="74">
            463 callsubr
            385 hlineto
            1 49 -34 22 -40 16 -37 13 rlinecurve
            235 vlineto
            43 -6 42 -36 35 -30 125 153 rcurveline
            -20 68 -87 34 -68 -21 -70 -82 rcurveline
            -59 88 -60 callsubr
            hintmask 01110000
            -325 371 callsubr
            return
          </CharString>
          <CharString index="75">
            rmoveto
            34 37 12 40 vhcurveto
            -75 vlineto
            -20 -5 -21 -5 -21 -3 rrcurveto
            -10 11 -5 18 13 vvcurveto
            endchar
          </CharString>
          <CharString index="76">
            -184 -106 callsubr
            return
          </CharString>
          <CharString index="77">
            rmoveto
            28 19 31 39 13 33 -18 23 -39 35 -33 13 -30 -16 -28 -39 -17 -36 20 -27 44 -33 29 -11 rrcurveto
            return
          </CharString>
          <CharString index="78">
            174 callsubr
            -128 182 -147 116 170 callgsubr
            return
          </CharString>
          <CharString index="79">
            -13 rlineto
            -514 vlineto
            return
          </CharString>
          <CharString index="80">
            -4 7 -5 9 -5 11 rrcurveto
            102 20 48 49 58 vvcurveto
            return
          </CharString>
          <CharString index="81">
            rmoveto
            68 185 68 -185 rlineto
            return
          </CharString>
          <CharString index="82">
            117 callsubr
            hintmask 1010100111000000
            435 callgsubr
            -140 hlineto
            -71 56 -77 69 -54 vhcurveto
            3 -3 4 -2 3 -3 -179 -120 rcurveline
            525 callgsubr
            218 160 rlineto
            -96 vlineto
            -85 callsubr
            230 vlineto
            45 49 53 36 28 hhcurveto
            15 7 -11 -11 -30 -53 -60 -77 -50 hvcurveto
            hintmask 0110100111000000
            119 -137 rlineto
            102 61 70 83 94 vvcurveto
            110 -96 125 -116 -36 -34 -12 -19 -31 vhcurveto
            hintmask 0101100110000000
            51 -96 callgsubr
            452 hlineto
            hintmask 0101010110000000
            -69 callsubr
            hintmask 0101100110000000
            -81 callsubr
            -929 hlineto
            return
          </CharString>
          <CharString index="83">
            146 callsubr
            308 428 callsubr
            hintmask 01000111
            263 callsubr
            hintmask 00010111
            280 -413 rlineto
            hintmask 10000111
            90 callsubr
            hintmask 10001011
            -1 -55 98 -17 rlineto
            -224 vlineto
            14 -123 rlineto
            hintmask 10000111
            -276 418 rlineto
            1 -266 vlineto
            hintmask 00101011
            -1 -55 75 -15 rlineto
            -512 vlineto
            hintmask 10000111
            -38 callsubr
            return
          </CharString>
          <CharString index="84">
            101 26 42 56 63 vvcurveto
            return
          </CharString>
          <CharString index="85">
            199 -99 callsubr
            return
          </CharString>
          <CharString index="86">
            -83 426 56 -53 53 hstemhm
            -31 619 hintmask 10100000
            46 -56 rmoveto
            103 -178 167 89 79 98 55 139 rlinecurve
            hintmask 01100000
            39 101 28 108 27 101 16 8 16 9 12 10 rrcurveto
            hintmask 10100000
            -1 53 rlineto
            -229 hlineto
            -14 -97 -20 -104 -19 -95 rrcurveto
            -16 hlineto
            -5 68 -61 228 rlineto
            -1 hlineto
            -253 -56 hlineto
            82 -53 118 -323 39 -10 34 -9 40 -9 rlinecurve
            -76 -30 -79 -26 -81 -22 rrcurveto
            return
          </CharString>
          <CharString index="87">
            -81 14 35 93 rlineto
            204 hlineto
            return
          </CharString>
          <CharString index="88">
            -1 callgsubr
            -232 467 callsubr
            hintmask 1010000110000000
            500 callgsubr
          </CharString>
          <CharString index="89">
            -20 callsubr
            hintmask 10110000
            -100 callsubr
            return
          </CharString>
          <CharString index="90">
            -63 callgsubr
            -296 hlineto
            return
          </CharString>
          <CharString index="91">
            rmoveto
            hintmask 0010100001100000
            39 -31 29 85 81 hhcurveto
            13 15 -2 -5 16 hvcurveto
            -61 vlineto
            hintmask 0011001001100000
            -33 -41 -48 -21 -42 6 rrcurveto
            hintmask 1001001001100000
            88 -116 rmoveto
            511 callgsubr
            -6 vlineto
            -28 -46 -70 -19 -70 hhcurveto
            -95 -92 35 73 -49 hvcurveto
            41 25 49 29 29 27 12 39 rlinecurve
            -117 16 142 -61 98 hhcurveto
            -49 361 rmoveto
            -110 23 -69 -59 -22 -72 rrcurveto
            hintmask 1000011001100000
            105 -96 callgsubr
            361 -101 hlineto
            -170 -493 rmoveto
            hintmask 0100011001100000
            76 80 19 37 57 hvcurveto
            89 -46 -68 callgsubr
            -66 callgsubr
            hintmask 0011000101100000
            -69 callsubr
            hintmask 0011001001100000
            -81 callsubr
            -960 hlineto
            hintmask 0011000011100000
            -47 callsubr
            hintmask 0011001001100000
            73 callsubr
            hintmask 1000011001100000
            -213 96 190 -116 189 hhcurveto
            endchar
          </CharString>
          <CharString index="92">
            -62 vlineto
            -85 callsubr
            return
          </CharString>
          <CharString index="93">
            -52 callsubr
            -48 28 42 -26 42 hhcurveto
            return
          </CharString>
          <CharString index="94">
            -18 -88 148 121 105 12 167 21 254 callsubr
            73 158 -74 179 -42 129 hintmask 1101001110100000
            429 132 109 callsubr
            -494 489 rmoveto
            hintmask 1110100101000000
            363 callsubr
            464 callsubr
            hvcurveto
            hintmask 1101100110100000
            115 callsubr
            hintmask 1110100101000000
            390 callsubr
            hintmask 1101100101000000
            188 -96 callgsubr
            231 525 callsubr
            -689 hlineto
            return
          </CharString>
          <CharString index="95">
            14 vvcurveto
            36 24 31 47 -7 vhcurveto
            20 -20 17 -25 17 -24 69 58 rcurveline
            return
          </CharString>
          <CharString index="96">
            -203 -17 rlineto
            191 vlineto
            144 -10 rlineto
            return
          </CharString>
          <CharString index="97">
            -89 15 rlineto
            126 vlineto
            195 85 163 87 23 vhcurveto
            86 hlineto
            15 50 rlineto
            28 -31 -54 21 -42 hhcurveto
            return
          </CharString>
          <CharString index="98">
            151 -147 131 2 155 156 -77 64 -137 -124 -135 126 rlineto
            return
          </CharString>
          <CharString index="99">
            18 callgsubr
            70 hlineto
            endchar
          </CharString>
          <CharString index="100">
            82 callgsubr
            -60 -13 -75 -24 -57 hhcurveto
            -95 -86 65 101 -67 592 callsubr
            -167 113 129 -89 134 hhcurveto
            449 callgsubr
            76 -49 92 -125 46 hvcurveto
            return
          </CharString>
          <CharString index="101">
            159 55 144 147 607 callgsubr
            -120 135 return
          </CharString>
          <CharString index="102">
            -1030 -101 callgsubr
            return
          </CharString>
          <CharString index="103">
            383 -102 102 215 121 callgsubr
            return
          </CharString>
          <CharString index="104">
            77 -28 callsubr
            return
          </CharString>
          <CharString index="105">
            530 callsubr
            -83 83 -49 49 hstemhm
            24 238 callsubr
            hintmask 1010011100000000
            -29 callgsubr
            hintmask 1101001100000000
            484 callgsubr
            3 callgsubr
            -172 201 -129 148 16 17 2 3 18 hvcurveto
            39 -188 175 71 335 callsubr
            hintmask 1101001010000000
            50 callsubr
            hintmask 1101001100000000
            183 hlineto
            hintmask 1011001100000000
            84 callsubr
            hintmask 1010101100000000
            -69 callsubr
            hintmask 1011001100000000
            -81 callsubr
            -669 hlineto
            return
          </CharString>
          <CharString index="106">
            195 callsubr
            474 99 -99 165.5 471 callsubr
            -572 320 callsubr
            247 callgsubr
            hintmask 10011000
            -100 callsubr
            hintmask 10010110
            -33 474 253 callsubr
            hintmask 10100010
            468 callsubr
            hintmask 10010100
            311 callgsubr
            hintmask 10010110
            325 callsubr
          </CharString>
          <CharString index="107">
            92 87 39 56 41 hvcurveto
            -83 134 rlineto
            -46 -46 -73 -29 -73 hhcurveto
            -60 -60 19 46 -46 hvcurveto
            -47 -56 rlineto
            -118 64 105 -45 99 hhcurveto
            return
          </CharString>
          <CharString index="108">
            99 callsubr
            hintmask 1010001111000000
            -358 274 rmoveto
            hintmask 1010100111000000
            227 callgsubr
            hintmask 1100100111000000
            216 vlineto
            52 46 53 40 32 -70 callsubr
            -38 -34 -12 -20 -30 vhcurveto
            hintmask 1010100111000000
            59 -96 callgsubr
            443 hlineto
            hintmask 1010010111000000
            -69 callsubr
            hintmask 1010100111000000
            378 callgsubr
          </CharString>
          <CharString index="109">
            330 callgsubr
            -239 hlineto
            -117 70 -82 97 -47 vhcurveto
            198 -97 63 -31 12 -34 -53 -68 rlinecurve
            167 -73 rlineto
            37 35 18 47 41 vvcurveto
            80 -67 52 -171 82 vhcurveto
            -183 88 rlineto
            311 -96 callgsubr
            return
          </CharString>
          <CharString index="110">
            -20 42 53 56 106 -12 25 49 rcurveline
            return
          </CharString>
          <CharString index="111">
            41 -50 rlineto
            97 44 70 79 78 vvcurveto
            37 -18 61 -79 29 vhcurveto
            -50 -12 -42 -54 -10 -40 59 -56 rcurveline
            -9 -49 -24 -35 -35 -32 rrcurveto
            return
          </CharString>
          <CharString index="112">
            13 0 55 -55 77 -77 80 149.5 103.5 229 338 callgsubr
            99 210 151 211 hintmask 1001010001100000
            416 577 rmoveto
            29 -21 15 -62 -46 vvcurveto
            -61 -30 -54 -67 -14 -20 2 6 -20 vhcurveto
            hintmask 1001100001000000
            221 vlineto
            -287 -530 146 callsubr
            404 428 callsubr
            hintmask 0101001001100000
            -124 22 rlineto
            152 vlineto
            91 1 rlineto
            158 1 113 90 125 vvcurveto
            117 -97 113 -183 -2 vhcurveto
            hintmask 1001000011000000
            -367 -8 rlineto
            hintmask 1001000101000000
            -1 -55 rlineto
            hintmask 0011001001000000
            76 -13 rlineto
            -518 vlineto
            hintmask 1001100001000000
            -29 -15 -26 -15 -22 -18 rrcurveto
            endchar
          </CharString>
          <CharString index="113">
            28 callsubr
            -93 -52 -69 -66 -54 35 -50 84 -59 vhcurveto
            67 51 return
          </CharString>
          <CharString index="114">
            -206 114 4 2 5 3 4 3 rlinecurve
            return
          </CharString>
          <CharString index="115">
            -16 -106 callsubr
            return
          </CharString>
          <CharString index="116">
            40 -23 46 -64 16 vhcurveto
            -40 -16 -34 -40 -7 -48 51 -39 rcurveline
            return
          </CharString>
          <CharString index="117">
            90 0 100 162 80 -80 412 -369 37 220 112 -97 97 205 callgsubr
            215 217 hintmask 10100011
            400 262 rmoveto
            hintmask 10010011
            43 43 rlineto
            hintmask 11001011
            -6 37 rlineto
            -120 220 hlineto
            hintmask 10000111
            107 15 rlineto
            68 -47 40 -104 -99 vvcurveto
            -110 -49 -117 -107 -18 -20 3 7 -21 vhcurveto
            hintmask 10100011
            152 vlineto
            -295 -230 496 callsubr
            160 -120 175 -247 -117 -111 -2 -6 -117 hvcurveto
            -1 -55 71 -12 rlineto
            hintmask 11000011
            -257 -52 vlineto
            hintmask 10100011
            -43 -43 6 -37 rlineto
            89 -178 hlineto
            377 callgsubr
          </CharString>
          <CharString index="118">
            -68 56 -71 80 -34 vhcurveto
            endchar
          </CharString>
          <CharString index="119">
            286 callsubr
            -181 231 callsubr
            return
          </CharString>
          <CharString index="120">
            50 0 97 209 78 -78 368 -112 112 -97 97 205 callgsubr
            138 206 -185 213 hintmask 11001110
            399 577 rmoveto
            35 -12 21 -49 -40 vvcurveto
            -46 -28 -46 -67 vhcurveto
            -43 hlineto
            hintmask 10010101
            178 vlineto
            -295 -530 146 callsubr
            376 hlineto
            214 71 94 91 77 -49 67 -97 21 hvcurveto
            hintmask 10100110
            80 22 38 73 56 vvcurveto
            84 -87 89 -174 -90 -174 -3 -5 -99 vhcurveto
            -1 -55 71 -12 rlineto
            -515 vlineto
            hintmask 10010101
            -38 callsubr
            356 61 rmoveto
            -61 8 rlineto
            hintmask 10100101
            205 67 vlineto
            55 37 -61 -54 hvcurveto
            hintmask 10010101
            -51 -31 -55 -67 8 vhcurveto
            endchar
          </CharString>
          <CharString index="121">
            -83 callgsubr
            133 -58 callsubr
            return
          </CharString>
          <CharString index="122">
            74 callsubr
            -585 hlineto
            return
          </CharString>
          <CharString index="123">
            -60 -53 -82 -42 -101 hhcurveto
            -15 -9 1 3 -13 hvcurveto
            -6 6 -4 13 11 vvcurveto
            40 54 29 69 -29 vhcurveto
            38 47 -74 121 return
          </CharString>
          <CharString index="124">
            rcurveline
            1 6 6 0 7 hhcurveto
            -98 -159 rmoveto
            -28 41 7 54 35 33 return
          </CharString>
          <CharString index="125">
            7 -18 -21 3 -20 hhcurveto
            -86 -97 -59 -123 return
          </CharString>
          <CharString index="126">
            -27 rmoveto
            hintmask 10100000
            137 110 82 117 71 -40 53 -69 46 hvcurveto
            hintmask 11000000
            34 35 21 44 46 vvcurveto
            116 -132 111 -143 -74 -103 -30 -65 -72 vhcurveto
            108 -162 62 51 81 54 68 19 rlinecurve
            23 -16 12 -23 -22 vvcurveto
            -27 -17 -29 -33 -21 vhcurveto
            -6 2 -54 9 -88 -19 -43 -39 rlinecurve
            98 -155 rlineto
            hintmask 10100000
            147 56 rlineto
            34 -10 16 -18 -26 vvcurveto
            -50 -63 -40 -73 -20 -19 3 5 -20 vhcurveto
            -43 73 -56 -2 -66 -154 26 -23 47 -30 46 -19 rlinecurve
            184 -238 89 59 rlineto
            54 vlineto
            -136 113 rlineto
            hintmask 11000000
            -1 9 9 0 9 hhcurveto
            endchar
          </CharString>
          <CharString index="127">
            rmoveto
            148 130 71 238 hvcurveto
            83 callsubr
            return
          </CharString>
          <CharString index="128">
            rmoveto
            51 -89 83 35 97 33 84 32 rlinecurve
            -66 138 rlineto
            return
          </CharString>
          <CharString index="129">
            336 callsubr
            183 return
          </CharString>
          <CharString index="130">
            84 -94 116 -123 -79 -75 -48 -55 -51 vhcurveto
            return
          </CharString>
          <CharString index="131">
            rmoveto
            120 89 89 112 19 hvcurveto
            -139 74 rlineto
            -78 -13 -57 -43 -63 hhcurveto
            -56 -59 34 85 -41 hvcurveto
            -83 -66 rlineto
            -138 54 123 -69 106 hhcurveto
            -34 184 rmoveto
            34 23 37 47 15 40 -22 29 -46 42 -40 16 -34 -20 -35 -47 -22 -43 24 -33 53 -40 36 -14 rrcurveto
            endchar
          </CharString>
          <CharString index="132">
            -96 callgsubr
            186 return
          </CharString>
          <CharString index="133">
            199 callgsubr
            -176 hlineto
            -139 1 return
          </CharString>
          <CharString index="134">
            -105 -20 197 321 -20 21 -20 return
          </CharString>
          <CharString index="135">
            112 -126 134 -130 return
          </CharString>
          <CharString index="136">
            -74 callgsubr
            244 147 hstemhm
            33 162 -125 125 -125 186 hintmask 11101001
            -78 callgsubr
            hintmask 11101010
            -120 hlineto
            -1 4 0 5 6 vvcurveto
            144 224 85 371 380 525 -89 -126 556 vhcurveto
            30 97 rlineto
            209 -825 -504 56 -299 hhcurveto
            hintmask 11101100
            -445 -175 -124 -144 -32 9 -40 36 -51 hvcurveto
            -118 153 callsubr
          </CharString>
          <CharString index="137">
            33 callgsubr
            endchar
          </CharString>
          <CharString index="138">
            -317 563 callgsubr
            424 259 callsubr
            hintmask 10110000
            58 callgsubr
            hintmask 01110000
            -317 371 callsubr
            return
          </CharString>
          <CharString index="139">
            22 105 callgsubr
            return
          </CharString>
          <CharString index="140">
            352 rmoveto
            hintmask 0101001010000000
            61 -95 rlineto
            76 hlineto
            -13 -25 -6 -25 -27 vvcurveto
            -131 134 -65 90 38 28 12 41 85 vhcurveto
            -1 -36 -57 -54 -26 -25 162 -81 rcurveline
            hintmask 1001011010000000
            143 144 -142 203 -129 hhcurveto
            -46 -50 -26 -40 -93 hvcurveto
            8 41 27 55 43 40 rrcurveto
            222 hlineto
            25 49 -66 112 rlineto
            -237 hlineto
            -10 15 -6 16 14 vvcurveto
            38 46 25 66 vhcurveto
            hintmask 0110010100000000
            44 54 -11 -26 57 hvcurveto
            4 165 rlineto
            26 -64 -62 14 -65 hhcurveto
            -148 -88 -75 -97 -39 15 -41 35 -41 hvcurveto
            -130 hlineto
            endchar
          </CharString>
          <CharString index="141">
            -69 -43 166 148 174 -174 399 -31 callsubr
            19 177 108 179 hintmask 1101001110000000
            -29 callgsubr
            hintmask 1101100110000000
            -83 callgsubr
            304 -93 -42 hlineto
            -175 -68 -92 -99 -166 191 -131 159 218 callsubr
            hintmask 1010000110000000
            339 callsubr
            171 hlineto
            hintmask 1101100110000000
            215 -96 callgsubr
            231 292 callsubr
            -638 hlineto
            return
          </CharString>
          <CharString index="142">
            189 callgsubr
            hintmask 1010101100101000
            45 -19 44 -37 39 vhcurveto
            101 -268 -22 callgsubr
            hintmask 1010101010001000
            -69 callsubr
            hintmask 1010101100001000
            -81 callsubr
            -1076 hlineto
            hintmask 1010101001001000
            -47 callsubr
            hintmask 1010101100001000
            -83 callgsubr
            780 -91 -584 hlineto
            hintmask 1010011100001000
            -48 callgsubr
            hintmask 1001001100101000
            85 callgsubr
            return
          </CharString>
          <CharString index="143">
            179 vlineto
            35 32 35 28 23 hhcurveto
            12 5 -8 -8 -24 -45 -46 -59 -38 hvcurveto
            92 -111 rlineto
            88 46 54 67 79 vvcurveto
            93 -76 85 -82 -28 -26 -10 -15 -25 vhcurveto
            30 vlineto
            return
          </CharString>
          <CharString index="144">
            -131 -62 -61 -72 -93 104 -90 144 -53 hvcurveto
            153 50 rlineto
            -58 -20 -66 -30 -62 hhcurveto
            return
          </CharString>
          <CharString index="145">
            -64 callgsubr
            -100 callgsubr
            return
          </CharString>
          <CharString index="146">
            -48 callgsubr
            85 callgsubr
            return
          </CharString>
          <CharString index="147">
            360 -19 rmoveto
            32 callgsubr
            186 hlineto
            return
          </CharString>
          <CharString index="148">
            56 -36 33 92 100 hhcurveto
            27 26 -4 -12 27 hvcurveto
            -52 vlineto
            return
          </CharString>
          <CharString index="149">
            -151 -17 125 427 callgsubr
            89 -89 284.5 -91 91 hstemhm
            8 188 -188 495 564 callgsubr
            hintmask 10101010
            331 -11 257 callsubr
            -37 -13 -42 hhcurveto
            348 callsubr
            hintmask 10100100
            249 -1 59 59 rlineto
            170 1 -134 56 -98 hhcurveto
            hintmask 10101010
            -134 -130 -103 -165 -181 159 -97 164 31 hvcurveto
            hintmask 11011010
            -79 424 319 callgsubr
            -49 -128 -9 rcurveline
            8 45 18 44 30 20 rrcurveto
            return
          </CharString>
          <CharString index="150">
            50 13 42 53 10 41 -59 56 rcurveline
            9 49 24 34 35 32 -41 50 rcurveline
            -97 -44 -70 -79 -78 vvcurveto
            -38 18 -59 79 -30 vhcurveto
            return
          </CharString>
          <CharString index="151">
            3 callsubr
            -72 119 return
          </CharString>
          <CharString index="152">
            26 callsubr
            -38 return
          </CharString>
          <CharString index="153">
            rmoveto
            150 -157 139 2 137 172 -81 70 -123 -143 -126 142 rlineto
            endchar
          </CharString>
          <CharString index="154">
            rmoveto
            -32 -28 22 36 33 25 25 33 33 26 -24 -35 -34 -24 -23 -33 hvcurveto
            2 -51 rmoveto
            73 51 51 73 77 -56 55 -72 -73 -54 -56 -73 -77 59 -50 72 hvcurveto
            return
          </CharString>
          <CharString index="155">
            217 254 rmoveto
            56 18 59 33 32 vhcurveto
            20 -1 20 -4 18 -7 rrcurveto
            -262 592 callgsubr
            -1 -7 hhcurveto
            -58 -28 60 70 hvcurveto
            246 -271 rmoveto
            144 82 -3 45 rlineto
            -1 -24 -13 -1 -16 hhcurveto
            -15 -9 12 14 hvcurveto
            return
          </CharString>
          <CharString index="156">
            86 57 40 62 31 33 -10 -21 31 vhcurveto
            25 86 rlineto
            62 -42 -53 24 -53 hhcurveto
            -69 -69 -41 -79 -30 hvcurveto
            -83 206 -107 91 -206 -79 67 -184 rcurveline
            return
          </CharString>
          <CharString index="157">
            -113 -39 11 -81 -47 -23 -55 -8 -52 24 rlinecurve
            -15 20 -8 23 22 vvcurveto
            49 39 46 88 vhcurveto
            return
          </CharString>
          <CharString index="158">
            rmoveto
            111 -201 69 26 rlineto
            return
          </CharString>
          <CharString index="159">
            -59 54 -80 -4 -75 -13 -64 -22 rlinecurve
            2 -50 75 -19 rlineto
            return
          </CharString>
          <CharString index="160">
            138 53 -39 callsubr
            hintmask 1001100110000000
            -89 callgsubr
            hintmask 1001001110000000
            -359 274 rmoveto
            hintmask 1001100110000000
            -70 callgsubr
            hintmask 1100100110000000
            249 callsubr
            hintmask 1010100110000000
            return
          </CharString>
          <CharString index="161">
            -60 -123 -19 -32 -91 hvcurveto
            -8 -52 6 -60 15 -49 114 1 rcurveline
            return
          </CharString>
          <CharString index="162">
            -50 rmoveto
            100 67 78 92 63 -32 58 -45 57 hvcurveto
            -9 12 -11 12 -11 13 82 89 96 98 24 24 rrcurveto
            hintmask 11011000
            -127 120 -68 -67 -72 -75 -57 -64 rlinecurve
            hintmask 10111000
            -103 96 -107 87 -28 24 -86 -103 rcurveline
            57 -49 94 -82 82 -79 rrcurveto
            -55 -71 -33 -59 -60 vvcurveto
            -118 131 -96 111 vhcurveto
            -72 138 rmoveto
            -8 12 -3 14 12 vvcurveto
            27 15 29 34 44 vhcurveto
            35 -46 7 -23 -19 vvcurveto
            -43 -34 -28 -46 21 vhcurveto
            endchar
          </CharString>
          <CharString index="163">
            rmoveto
            60 -47 121 95 58 137 -76 109 rlinecurve
            -143 -61 rlineto
            -55 vlineto
            55 -8 -15 -77 -60 -93 rrcurveto
            endchar
          </CharString>
          <CharString index="164">
            7 35 rmoveto
            1 -35 rlineto
            347 hlineto
            1 391 callgsubr
            595 251 callsubr
            return
          </CharString>
          <CharString index="165">
            267 callsubr
            -130 449 callsubr
            return
          </CharString>
          <CharString index="166">
            -2 -65 43 -52 101 -41 72 -1 rlinecurve
            return
          </CharString>
          <CharString index="167">
            605 callsubr
            -64 callsubr
            hintmask 0110100100000000
            -3 callgsubr
            hintmask 1010100100000000
            114 callsubr
            hintmask 1010100010000000
            156 callsubr
            hintmask 1010100100000000
            -11 callsubr
            hintmask 1011000100000000
            168 callgsubr
            hintmask 1010100100000000
            15 callsubr
            endchar
          </CharString>
          <CharString index="168">
            455 rmoveto
            53 35 38 38 vhcurveto
            hintmask 11100000
            29 22 -24 -30 -43 -44 -46 -47 -32 hvcurveto
            hintmask 11010000
            -23 29 -10 27 28 vvcurveto
            130 -444 rmoveto
            177 -69 rlineto
            27 34 12 33 31 vvcurveto
            65 -50 55 -60 46 vhcurveto
            -75 57 rlineto
            hintmask 11100000
            64 46 55 61 77 vvcurveto
            111 -115 136 -141 -114 -81 -89 -108 4 vhcurveto
            3 -86 59 -73 84 -72 rrcurveto
            hintmask 11010000
            148 -128 46 -39 -7 -47 -36 -41 rlinecurve
            endchar
          </CharString>
          <CharString index="169">
            309 callgsubr
            319 callsubr
            125 194 callgsubr
            return
          </CharString>
          <CharString index="170">
            37 25 41 52 17 44 -24 31 -51 47 -44 17 -37 -22 -39 -51 -24 -48 26 -36 59 -44 39 -15 rrcurveto
            endchar
          </CharString>
          <CharString index="171">
            -17 rmoveto
            176 -69 rlineto
            18 19 22 39 40 vvcurveto
            54 -41 37 -63 44 vhcurveto
            -71 50 50 42 rlineto
            hintmask 11101000
            75 62 41 62 66 vvcurveto
            104 -101 161 -158 -112 -51 -81 -65 -55 37 -55 94 -51 vhcurveto
            64 49 -50 43 13 95 78 -5 rlinecurve
            20 -21 4 -28 -13 vvcurveto
            -41 -36 -42 -63 -49 vhcurveto
            -119 -92 10 -78 rlineto
            hintmask 11110000
            133 -95 rlineto
            31 -22 24 -19 -28 vvcurveto
            -24 -16 -23 -9 -11 vhcurveto
            endchar
          </CharString>
          <CharString index="172">
            27 callsubr
            hstemhm
            return
          </CharString>
          <CharString index="173">
            154 0 87 callgsubr
            return
          </CharString>
          <CharString index="174">
            -22 -9 -23 -11 -21 -13 1 -35 rcurveline
            357 hlineto
            1 49 -29 19 -31 14 -31 12 rlinecurve
            return
          </CharString>
          <CharString index="175">
            88 callgsubr
            34 return
          </CharString>
          <CharString index="176">
            174 -138.5 138.5 return
          </CharString>
          <CharString index="177">
            -122 94 -120 215 -113 return
          </CharString>
          <CharString index="178">
            341 rmoveto
            29 -17 14 69 59 hhcurveto
            36 19 -26 -35 8 hvcurveto
            -41 -29 -53 -12 -25 4 rrcurveto
            27 -372 rmoveto
            129 105 91 162 170 -116 208 -153 -91 -57 -74 -74 -60 37 -62 56 -46 hvcurveto
            -33 40 50 -24 49 hhcurveto
            11 12 1 3 11 hvcurveto
            -51 -19 -39 -30 -53 hhcurveto
            -99 -117 94 332 -49 hvcurveto
            -144 -45 rlineto
            -284 32 176 -278 229 hhcurveto
            endchar
          </CharString>
          <CharString index="179">
            252 -137 rmoveto
            18 10 18 16 17 vhcurveto
            91 -57 rlineto
            -21 -29 -35 -12 -37 hhcurveto
            -13 11 -3 16 10 vvcurveto
            72 87 rmoveto
            32 17 39 11 38 -2 1 -27 -9 -28 -17 -23 rrcurveto
            -473 723 rmoveto
            return
          </CharString>
          <CharString index="180">
            42 callgsubr
            rlineto
            return
          </CharString>
          <CharString index="181">
            15 69 8 100 -2 46 rrcurveto
            return
          </CharString>
          <CharString index="182">
            389 callsubr
            hintmask 10010000
            45 2 -59 41 -78 hhcurveto
            hintmask 01010000
            34 62 rlineto
            -73 hlineto
            hintmask 00110000
            -63 -77 27 -47 rlineto
            hintmask 01010000
            287 callsubr
            rrcurveto
            endchar
          </CharString>
          <CharString index="183">
            rmoveto
            28 30 -8 -15 31 hvcurveto
            -69 vlineto
            -7 -11 -8 -10 -10 -8 -83 120 17 callsubr
            87 -124 rcurveline
            -35 -12 -37 -2 -29 10 rrcurveto
            return
          </CharString>
          <CharString index="184">
            14 -21 hstem
            374 172 vstem
            553 -7 rmoveto
            55 vlineto
            -202 129 rlineto
            116 46 79 85 110 vvcurveto
            145 -137 132 -152 -1 vhcurveto
            -72 -93 -30 -65 -72 hvcurveto
            108 -162 62 51 74 54 68 19 rlinecurve
            28 -24 14 -31 -32 vvcurveto
            -67 -61 -60 -110 -22 vhcurveto
            -42 50 -50 -9 -56 -166 33 -28 61 -19 52 -5 rlinecurve
            263 -224 rlineto
            endchar
          </CharString>
          <CharString index="185">
            -112 -46 9 -48 -38 -23 -49 -14 -47 9 rlinecurve
            -5 12 -3 11 11 vvcurveto
            43 41 return
          </CharString>
          <CharString index="186">
            rmoveto
            -37 29 -21 23 -1 26 rrcurveto
            return
          </CharString>
          <CharString index="187">
            -64 65 -42 43 52 vvcurveto
            52 42 29 55 28 32 -8 -16 32 vhcurveto
            541 callsubr
            -62 100 hhcurveto
            return
          </CharString>
          <CharString index="188">
            rmoveto
            98 76 -157 197 -120 -106 60 -48 63 -65 56 -54 rlinecurve
            return
          </CharString>
          <CharString index="189">
            -185 -42 rlineto
            -13 9 -9 14 12 vvcurveto
            17 15 13 41 vhcurveto
            return
          </CharString>
          <CharString index="190">
            293 vlineto
            32 16 28 17 25 19 -6 32 rcurveline
            -300 hlineto
            return
          </CharString>
          <CharString index="191">
            147 callsubr
            234 hlineto
            return
          </CharString>
          <CharString index="192">
            -61 14 -54 -7 262 callgsubr
            -49 hvcurveto
            return
          </CharString>
          <CharString index="193">
            154 callgsubr
            3 4 0 -1 3 vhcurveto
            -11 -34 -5 -38 3 -41 157 callsubr
            return
          </CharString>
          <CharString index="194">
            37 callgsubr
            endchar
          </CharString>
          <CharString index="195">
            -72 10 32 -47 51 hhcurveto
            return
          </CharString>
          <CharString index="196">
            -113 -39 11 -86 -49 -21 -58 -6 -47 25 rlinecurve
            -11 16 -8 25 23 vvcurveto
            50 38 46 90 vhcurveto
            return
          </CharString>
          <CharString index="197">
            179 14 7 585 29 15 26 16 23 18 rlinecurve
            -6 32 rlineto
            -310 hlineto
            return
          </CharString>
          <CharString index="198">
            -2 -55 5 -93 9 -70 rrcurveto
            return
          </CharString>
          <CharString index="199">
            186 93 274 callgsubr
            314 562 callgsubr
            386 -186 186 return
          </CharString>
          <CharString index="200">
            rmoveto
            177 93 -4 53 rlineto
            -2 -23 -30 -2 -23 hhcurveto
            -26 -13 9 30 hvcurveto
            185 78 vlineto
            51 68 rlineto
            57 -136 vlineto
            return
          </CharString>
          <CharString index="201">
            204 vlineto
            50 43 48 39 30 hhcurveto
            return
          </CharString>
          <CharString index="202">
            -162 486 336 callsubr
            193 hintmask 10011000
            -29 callgsubr
            hintmask 11001000
            350 callsubr
            rlineto
            70 44 40 35 73 vvcurveto
            132 -96 callgsubr
            232 441 callgsubr
            -545 hlineto
            return
          </CharString>
          <CharString index="203">
            709 rmoveto
            73 51 51 73 77 -56 55 -72 -73 -54 -56 -73 -77 59 -50 72 hvcurveto
            -2 51 rmoveto
            -32 -28 22 36 33 25 25 33 33 26 -24 -35 -34 -24 -23 -33 hvcurveto
            endchar
          </CharString>
          <CharString index="204">
            rmoveto
            18 18 3 4 16 hvcurveto
            45 -215 543 callgsubr
            return
          </CharString>
          <CharString index="205">
            3 9 1 9 1 rrcurveto
            46 3 24 -36 -55 vvcurveto
            -281 return
          </CharString>
          <CharString index="206">
            rmoveto
            13 591 callgsubr
            -61 vlineto
            -31 -40 -40 -18 -35 -7 rrcurveto
            49 -34 20 83 81 hhcurveto
            return
          </CharString>
          <CharString index="207">
            -147 6 57 -76 75 hhcurveto
            return
          </CharString>
          <CharString index="208">
            135 71 callgsubr
            -77 -21 625 55 -32 32 hstemhm
            107 142 312 450 callgsubr
            hintmask 10000111
            return
          </CharString>
          <CharString index="209">
            106 -20 107 524 55 -32 32 hstemhm
            83 210 247 142 hintmask 10111000
            return
          </CharString>
          <CharString index="210">
            117 -119 127 -123 return
          </CharString>
          <CharString index="211">
            94 callsubr
            10 11 -5 -6 7 hvcurveto
            11 -10 rlineto
            541 callsubr
            -63 100 -80 callgsubr
            return
          </CharString>
          <CharString index="212">
            rmoveto
            82 hlineto
            37 38 rlineto
            -38 51 -25 28 49 vvcurveto
            hintmask 00110000
            120 callgsubr
            hintmask 01010000
            176 callsubr
            rrcurveto
            hintmask 10010000
            63 -112 3 -9 4 -9 3 -10 rlinecurve
            endchar
          </CharString>
          <CharString index="213">
            195 callsubr
            471 callsubr
            hintmask 10100000
            -94 callsubr
            hintmask 01100000
            -20 callsubr
            hintmask 10100000
            31 -83 -28 -14 -25 -16 -22 -17 rlinecurve
            24 callgsubr
            362 hlineto
            1 55 -71 12 -250 623 rlineto
            return
          </CharString>
          <CharString index="214">
            487 rmoveto
            hintmask 11010000
            65 -103 rlineto
            74 hlineto
            -1 -13 -1 -11 -12 vvcurveto
            -175 165 -81 80 44 41 24 36 75 vhcurveto
            -37 -45 -60 -28 -26 vhcurveto
            174 -87 rlineto
            160 150 -163 215 -128 hhcurveto
            -47 -68 -29 -41 -95 hvcurveto
            8 28 16 59 26 50 rrcurveto
            257 hlineto
            25 49 -65 103 rlineto
            -534 hlineto
            endchar
          </CharString>
          <CharString index="215">
            156 274 255 callgsubr
            62 482 callsubr
            return
          </CharString>
          <CharString index="216">
            rmoveto
            32 19 17 17 14 13 -11 -24 -29 -20 -23 -29 -15 vhcurveto
            -10 20 -4 18 15 vvcurveto
            return
          </CharString>
          <CharString index="217">
            -10 48 23 47 42 28 rrcurveto
            88 hlineto
            25 49 return
          </CharString>
          <CharString index="218">
            -304 hlineto
            169 callgsubr
            return
          </CharString>
          <CharString index="219">
            72 321 callgsubr
            return
          </CharString>
          <CharString index="220">
            rmoveto
            -7 hlineto
            3 -54 rlineto
            33 hlineto
            34 18 -21 -22 -14 -8 -15 -18 -8 hvcurveto
            -33 17 -43 33 -37 33 -26 -109 rcurveline
            -19 41 53 -8 41 hhcurveto
            76 75 30 68 return
          </CharString>
          <CharString index="221">
            -39 -113 157 callgsubr
            return
          </CharString>
          <CharString index="222">
            126 84 86 89 92 -89 107 -124 -75 -62 -39 -74 -19 4 -22 11 -25 hvcurveto
            71 -47 rlineto
            -4 hlineto
            -41 -44 10 20 -37 hvcurveto
            -23 26 -10 32 30 vvcurveto
            return
          </CharString>
          <CharString index="223">
            8 -13 3 -26 -24 vvcurveto
            1 return
          </CharString>
          <CharString index="224">
            222 2 -21 33 -21 299 174 373 callgsubr
            60 168 callsubr
            152 161 hintmask 0101100110000000
            257 283 -73 callsubr
            hintmask 0101001110000000
            -322 338 rmoveto
            return
          </CharString>
          <CharString index="225">
            899 rmoveto
            139 -74 rlineto
            78 13 57 43 63 hhcurveto
            56 59 -34 -85 41 hvcurveto
            83 66 rlineto
            138 -54 -123 69 -106 hhcurveto
            -120 -89 -89 -112 -19 hvcurveto
            267 -200 rmoveto
            40 16 46 42 22 29 -15 40 -37 47 -34 23 -36 -14 -53 -40 -24 -33 22 -43 35 -47 34 -20 rrcurveto
            endchar
          </CharString>
          <CharString index="226">
            rlinecurve
            -8 13 -5 15 15 vvcurveto
            40 34 40 93 vhcurveto
            183 hlineto
            25 49 -79 124 rlineto
            -189 hlineto
            hintmask 1110101001000000
            -37 -32 -5 -7 -27 hvcurveto
            -11 12 -5 13 11 vvcurveto
            22 19 22 37 vhcurveto
            293 hlineto
            hintmask 1101100011000000
            157 -96 callgsubr
            210 hlineto
            25 49 -75 83 rlineto
            -654 hlineto
            endchar
          </CharString>
          <CharString index="227">
            71 95 rlineto
            154 callgsubr
            return
          </CharString>
          <CharString index="228">
            128 callgsubr
            613 -158 rmoveto
            -55 callsubr
            -197 451 callgsubr
            575 -313 hlineto
            398 callsubr
            return
          </CharString>
          <CharString index="229">
            rmoveto
            10 callgsubr
            return
          </CharString>
          <CharString index="230">
            21 -34 136 -4 74 71 2 64 rlinecurve
            45 2 -59 41 -78 hhcurveto
            return
          </CharString>
          <CharString index="231">
            hintmask 11010000
            218 -17 93 callsubr
            hintmask 10110000
            230 callgsubr
            hintmask 11010000
            -64 69 -55 74 3 vhcurveto
            return
          </CharString>
          <CharString index="232">
            -9 14 -8 15 -7 15 rrcurveto
            104 25 43 58 394 callsubr
            return
          </CharString>
          <CharString index="233">
            -83 callgsubr
            332 return
          </CharString>
          <CharString index="234">
            vvcurveto
            63 50 28 52 24 24 -6 -10 21 vhcurveto
            25 86 rlineto
            41 -35 -63 33 -68 hhcurveto
            -103 -72 -76 -87 return
          </CharString>
          <CharString index="235">
            55 -29 48 64 71 hhcurveto
            20 18 -5 -10 17 hvcurveto
            return
          </CharString>
          <CharString index="236">
            -5 59 rlineto
            -249 hlineto
            -31 -43 -6 -19 -39 hvcurveto
            return
          </CharString>
          <CharString index="237">
            233 callsubr
            491 99 return
          </CharString>
          <CharString index="238">
            hhcurveto
            -131 -83 -85 -105 -64 31 -69 67 -52 hvcurveto
            74 37 rlineto
            -14 23 -6 22 20 vvcurveto
            52 44 51 70 78 69 -73 -138 77 vhcurveto
            -98 hlineto
            return
          </CharString>
          <CharString index="239">
            90 callgsubr
            492 callsubr
            hintmask 01100111
            -29 callgsubr
            hintmask 01110011
            -83 callgsubr
            120 hlineto
            3 -141 274 callsubr
            43 rlineto
            315 -96 callgsubr
            206 return
          </CharString>
          <CharString index="240">
            129 callsubr
            endchar
          </CharString>
          <CharString index="241">
            hintmask 01010100
            518 callgsubr
            hintmask 10100100
            77 -13 rlineto
            -514 vlineto
            hintmask 01001100
            16 callgsubr
            return
          </CharString>
          <CharString index="242">
            76 86 29 65 56 hvcurveto
            -87 132 -72 -63 -122 -29 -64 23 rlinecurve
            -10 13 -4 16 12 vvcurveto
            38 43 31 62 vhcurveto
            156 169 hlineto
            return
          </CharString>
          <CharString index="243">
            63 57 39 69 20 21 -3 -7 21 vhcurveto
            -15 -30 -43 -45 -45 -35 148 -102 rcurveline
            60 39 36 54 64 vvcurveto
            124 -132 82 -140 return
          </CharString>
          <CharString index="244">
            -24 0 84 -84 266.5 331.5 343 callgsubr
            return
          </CharString>
          <CharString index="245">
            -101 153 -72 -73 -129 -51 -84 28 rlinecurve
            -11 15 -3 10 13 vvcurveto
            71 86 -11 84 33 vhcurveto
            return
          </CharString>
          <CharString index="246">
            rmoveto
            -19 -15 5 10 -13 hvcurveto
            -6 35 -17 33 -28 29 rrcurveto
            156 hlineto
            -48 23 -16 -64 -65 hhcurveto
            return
          </CharString>
          <CharString index="247">
            82 callsubr
            270 hlineto
            return
          </CharString>
          <CharString index="248">
            -194 -42 rlineto
            -14 9 -9 14 12 vvcurveto
            17 16 13 43 vhcurveto
            return
          </CharString>
          <CharString index="249">
            167 hintmask 10110000
            303 -20 rmoveto
            return
          </CharString>
          <CharString index="250">
            -56 -14 95 callgsubr
            return
          </CharString>
          <CharString index="251">
            261 callsubr
            hintmask 1010011001100000
            -66 callgsubr
            hintmask 1010010101100000
            -69 callsubr
            hintmask 1010011001100000
            -81 callsubr
            return
          </CharString>
          <CharString index="252">
            45 rmoveto
            121 95 92 119 146 -143 159 -149 -109 -122 -85 -137 -157 159 -137 148 hvcurveto
            -107 160 rmoveto
            -19 20 -9 25 26 vvcurveto
            66 59 78 101 -31 vhcurveto
            18 -24 9 -27 -27 vvcurveto
            -69 -60 -62 -99 25 vhcurveto
            endchar
          </CharString>
          <CharString index="253">
            rmoveto
            24 callgsubr
            return
          </CharString>
          <CharString index="254">
            191 -96 callgsubr
            return
          </CharString>
          <CharString index="255">
            -34 rmoveto
            85 73 51 91 55 hvcurveto
            -113 127 rlineto
            -78 -55 -50 -31 -42 hhcurveto
            -42 -28 31 40 30 16 30 58 70 hvcurveto
            163 196 -121 145 -192 -235 rlineto
            -60 -74 -24 -67 -54 vvcurveto
            -128 135 -144 142 vhcurveto
            endchar
          </CharString>
          <CharString index="256">
            rmoveto
            -28 -29 6 13 -24 hvcurveto
            -9 14 -5 17 16 vvcurveto
            36 27 34 64 vhcurveto
            99 hlineto
            15 -18 6 -19 -17 vvcurveto
            -53 -56 -29 -60 vhcurveto
            return
          </CharString>
          <CharString index="257">
            7 callsubr
            271 -187 -22 callgsubr
            return
          </CharString>
          <CharString index="258">
            154 callgsubr
            170 callgsubr
            return
          </CharString>
          <CharString index="259">
            rmoveto
            51 89 -249 149 -66 -138 84 -32 97 -33 83 -35 rlinecurve
            return
          </CharString>
          <CharString index="260">
            hlineto
            hintmask 11011001
            -47 callsubr
            hintmask 11101001
            407 callgsubr
          </CharString>
          <CharString index="261">
            21 -106 callsubr
            return
          </CharString>
          <CharString index="262">
            234 callsubr
            -233 vlineto
            -32 -60 return
          </CharString>
          <CharString index="263">
            203 301 callgsubr
            return
          </CharString>
          <CharString index="264">
            138 -83 rcurveline
            43 30 rlineto
            return
          </CharString>
          <CharString index="265">
            299 callgsubr
            hintmask 0101001001000000
            140 callsubr
            hintmask 0011000011000000
            297 callgsubr
            hintmask 0100100010100000
            -69 callsubr
            hintmask 0101000010100000
            378 callsubr
          </CharString>
          <CharString index="266">
            135 -49 49 220 callgsubr
            return
          </CharString>
          <CharString index="267">
            rmoveto
            86 -64 53 51 60 62 57 48 rlinecurve
            -110 88 rlineto
            return
          </CharString>
          <CharString index="268">
            205 callgsubr
            -210 413 return
          </CharString>
          <CharString index="269">
            -100 callsubr
            -405 350 -73 callgsubr
            return
          </CharString>
          <CharString index="270">
            12 -16 6 -18 -17 vvcurveto
            -44 -40 -40 -59 -79 -63 70 110 -101 vhcurveto
            -80 -75 rlineto
            -149 119 122 -95 125 hhcurveto
            return
          </CharString>
          <CharString index="271">
            170 -112 139 -139 323 -132 -92 callsubr
            hstemhm
            19 192 121 186 154 160 return
          </CharString>
          <CharString index="272">
            -75 75 -41 48 48 vvcurveto
            42 31 31 61 vhcurveto
            91 342 callgsubr
            return
          </CharString>
          <CharString index="273">
            143 466 callsubr
            27 565 callsubr
            222 callsubr
            return
          </CharString>
          <CharString index="274">
            -133 -20 203 118 204 return
          </CharString>
          <CharString index="275">
            197 381 callsubr
            return
          </CharString>
          <CharString index="276">
            219 244 219 return
          </CharString>
          <CharString index="277">
            rmoveto
            80 65 rlineto
            134 -90 -93 150 -142 hhcurveto
            -97 -79 -70 -89 hvcurveto
            hintmask 10100000
            -100 101 -82 94 46 41 19 44 40 vhcurveto
            -86 101 -105 -65 rlineto
            hintmask 01100000
            -6 6 -2 9 9 vvcurveto
            36 34 44 51 64 49 -69 -142 100 vhcurveto
            endchar
          </CharString>
          <CharString index="278">
            530 callsubr
            -49 49 hstemhm
            24 238 callsubr
            hintmask 10101110
            -29 callgsubr
            hintmask 11010110
            484 callgsubr
            3 callgsubr
            return
          </CharString>
          <CharString index="279">
            508 callgsubr
            hintmask 1111000110000000
            -51 -35 -27 -48 -60 vvcurveto
            -147 164 -114 162 86 89 32 81 77 vhcurveto
            138 callsubr
            89 35 return
          </CharString>
          <CharString index="280">
            24 -16 13 -28 -28 vvcurveto
            -46 -33 -47 -68 -75 -55 57 133 -78 vhcurveto
            -92 -62 rlineto
            -245 129 146 -46 84 hhcurveto
            return
          </CharString>
          <CharString index="281">
            330 callgsubr
            -140 hlineto
            return
          </CharString>
          <CharString index="282">
            -84 callgsubr
            -238 -218 -107 callgsubr
            endchar
          </CharString>
          <CharString index="283">
            -95 120 -116 48 -165 -99 97 -192 rcurveline
            287 callgsubr
            return
          </CharString>
          <CharString index="284">
            -5 59 rlineto
            -308 hlineto
            -31 -43 -5 -20 -39 hvcurveto
            endchar
          </CharString>
          <CharString index="285">
            771 2 -21 23 -21 29 -21 91 403 -362 152 19 170 -117 -53 callgsubr
            91 481 callsubr
            return
          </CharString>
          <CharString index="286">
            239 -168 rmoveto
            -203 198 rlineto
            -40 hlineto
            -190 -181 113 -97 110 109 131 -111 rlineto
            return
          </CharString>
          <CharString index="287">
            132 -111 111 -111 134 -72 49 hstemhm
            return
          </CharString>
          <CharString index="288">
            555 callsubr
            -160 32 -96 -101 -107 vvcurveto
            return
          </CharString>
          <CharString index="289">
            -8 14 -6 16 -6 15 rrcurveto
            -23 callsubr
            return
          </CharString>
          <CharString index="290">
            32 callsubr
            361 hlineto
            1 55 -73 13 rlineto
            177 vlineto
            17 18 184 -263 rlineto
            263 hlineto
            1 55 -63 15 -249 336 171 180 35 14 40 17 22 17 rlinecurve
            -6 32 rlineto
            -280 hlineto
            return
          </CharString>
          <CharString index="291">
            21 callsubr
            endchar
          </CharString>
          <CharString index="292">
            -222 103 211 -112 182 hhcurveto
            return
          </CharString>
          <CharString index="293">
            -85 callsubr
            hintmask 10110001
            -66 callgsubr
            hintmask 10101001
            -69 callsubr
            hintmask 10110001
            -81 callsubr
            return
          </CharString>
          <CharString index="294">
            -34 callgsubr
            -29 -26 -21 -72 -14 vhcurveto
            35 -38 -44 11 -83 hhcurveto
            return
          </CharString>
          <CharString index="295">
            153 -239 18 75 vvcurveto
            14 7 16 36 7 vhcurveto
            7 7 -1 -1 7 hvcurveto
            return
          </CharString>
          <CharString index="296">
            506 callsubr
            91 285 callsubr
            return
          </CharString>
          <CharString index="297">
            188 0 238 callgsubr
            return
          </CharString>
          <CharString index="298">
            167 callgsubr
            hstemhm
            15 94 return
          </CharString>
          <CharString index="299">
            -86 -15 105 -105 256 -63 63 264 -20 return
          </CharString>
          <CharString index="300">
            -139 171 -118 125 vhcurveto
            return
          </CharString>
          <CharString index="301">
            -9 15 -9 16 -8 16 rrcurveto
            return
          </CharString>
          <CharString index="302">
            74 0 254 -92 92 return
          </CharString>
          <CharString index="303">
            -96 callsubr
            hintmask 11010101
            -69 callsubr
            hintmask 11011001
            -81 callsubr
            return
          </CharString>
          <CharString index="304">
            141 34 154 -7 275 callgsubr
            492 -476 190 return
          </CharString>
          <CharString index="305">
            -42 callsubr
            endchar
          </CharString>
          <CharString index="306">
            rmoveto
            hintmask 00110010
            -3 callsubr
            hintmask 10000110
            -50 callsubr
            hintmask 01000110
            -89 15 rlineto
            512 -99 callsubr
            endchar
          </CharString>
          <CharString index="307">
            273 205 rmoveto
            304 callsubr
            246 -247 hlineto
            -43 -56 -96 -44 -60 14 rrcurveto
            return
          </CharString>
          <CharString index="308">
            175 -84 callgsubr
            return
          </CharString>
          <CharString index="309">
            rlineto
            18 callsubr
            return
          </CharString>
          <CharString index="310">
            233 callgsubr
            68 -96 callgsubr
            return
          </CharString>
          <CharString index="311">
            238 476 rmoveto
            63 66 37 41 -46 vhcurveto
            -44 return
          </CharString>
          <CharString index="312">
            26 callgsubr
            hintmask 1101100110000000
            237 283 -73 callsubr
            return
          </CharString>
          <CharString index="313">
            393 callgsubr
            -581 -155 311 callsubr
            -187 -573 rmoveto
            529 callgsubr
            3 -15 rcurveline
            215 30 hlineto
            return
          </CharString>
          <CharString index="314">
            -99 callsubr
            hintmask 0101001000011000
            -1 -55 rlineto
            hintmask 0101010000011000
            77 -13 rlineto
            return
          </CharString>
          <CharString index="315">
            47 25 31 37 15 49 -15 49 -44 39 -51 23 -52 -28 -38 -42 -8 -59 24 -45 38 -30 53 -18 rrcurveto
            return
          </CharString>
          <CharString index="316">
            -91 74 202 callsubr
            return
          </CharString>
          <CharString index="317">
            86 -40 81 -60 50 vhcurveto
            33 -96 callgsubr
            242 hlineto
            return
          </CharString>
          <CharString index="318">
            -22 rlinecurve
            -4 10 -2 10 10 vvcurveto
            26 12 24 24 15 vhcurveto
            return
          </CharString>
          <CharString index="319">
            194 callsubr
            147 40 50 90 76 vvcurveto
            return
          </CharString>
          <CharString index="320">
            -84 callgsubr
            endchar
          </CharString>
          <CharString index="321">
            327 hlineto
            1 49 -17 13 -18 11 -18 10 rlinecurve
            281 vlineto
            9 98 callsubr
            264 vlineto
            1 49 -21 15 -21 13 -22 11 rlinecurve
            206 vlineto
            return
          </CharString>
          <CharString index="322">
            235 callgsubr
            5 6 0 -1 5 vhcurveto
            -13 -33 -7 -37 342 callsubr
            return
          </CharString>
          <CharString index="323">
            -96 callgsubr
            206 68 callgsubr
            return
          </CharString>
          <CharString index="324">
            hlineto
            -18 402 -354 -248 -34 242 -104 -10 rcurveline
            -409 353 187 43 -164 vhcurveto
            return
          </CharString>
          <CharString index="325">
            64 92 21 82 71 556 callsubr
            -136 -40 -74 38 rlinecurve
            return
          </CharString>
          <CharString index="326">
            116 callsubr
            -149 rlineto
            return
          </CharString>
          <CharString index="327">
            112 -97 97 -76 76 -63 63 -8 -20 return
          </CharString>
          <CharString index="328">
            185 120 161 68 186 return
          </CharString>
          <CharString index="329">
            481 -166 166 return
          </CharString>
          <CharString index="330">
            211 217 vlineto
            return
          </CharString>
          <CharString index="331">
            758 rmoveto
            hintmask 0110101010000000
            -77 callgsubr
            451 callsubr
            hintmask 1010010110000000
            11 callsubr
          </CharString>
          <CharString index="332">
            rmoveto
            hintmask 11001000
            -83 callgsubr
            425 441 callgsubr
            -425 hlineto
            endchar
          </CharString>
          <CharString index="333">
            -68 callgsubr
            -66 callgsubr
            hintmask 11101011
            -69 callsubr
            hintmask 11110011
            -81 callsubr
            -859 hlineto
            hintmask 11100111
            -47 callsubr
            hintmask 11110011
            26 callsubr
            return
          </CharString>
          <CharString index="334">
            369 295 callsubr
            -156 363 callgsubr
            582 429 callsubr
            384 -186 186 return
          </CharString>
          <CharString index="335">
            -99 callsubr
            hintmask 10010011
            -1 -55 rlineto
            hintmask 10100011
            77 -13 rlineto
            return
          </CharString>
          <CharString index="336">
            8 -13 3 -26 -24 vvcurveto
            1 -149 74 callgsubr
            return
          </CharString>
          <CharString index="337">
            -99 -53 callgsubr
            return
          </CharString>
          <CharString index="338">
            rlineto
            -79 hlineto
            -36 -58 28 -86 117 517 callsubr
            return
          </CharString>
          <CharString index="339">
            220 258 callgsubr
            return
          </CharString>
          <CharString index="340">
            52 25 callgsubr
            86 return
          </CharString>
          <CharString index="341">
            -25 -49 -83 callgsubr
            return
          </CharString>
          <CharString index="342">
            175 41 186 return
          </CharString>
          <CharString index="343">
            6 callsubr
            -72 59 42 59 55 -2 rlinecurve
            116 callsubr
            -139 rlineto
            -82 hlineto
            -36 -58 rlineto
            return
          </CharString>
          <CharString index="344">
            72 -75 rlineto
            -19 34 43 -8 34 hhcurveto
            111 80 87 119 hvcurveto
            return
          </CharString>
          <CharString index="345">
            177 136 69 callsubr
            return
          </CharString>
          <CharString index="346">
            486 303 callsubr
            return
          </CharString>
          <CharString index="347">
            -5 callgsubr
            hintmask 1000101000110000
            -47 callgsubr
            hintmask 0110100100110000
            88 callsubr
            hintmask 0100100011110000
            return
          </CharString>
          <CharString index="348">
            -21 188 105 12 167 -167 372 210 callgsubr
            24 174 73 158 63 129 217 235 callsubr
            return
          </CharString>
          <CharString index="349">
            212 callgsubr
            287 callgsubr
            rlinecurve
            return
          </CharString>
          <CharString index="350">
            -83 callgsubr
            170 hlineto
            7 -168 -77 -12 -98 -6 -86 7 rlinecurve
            17 27 10 31 31 vvcurveto
            return
          </CharString>
          <CharString index="351">
            5 -2 6 -3 5 -2 -189 -110 rcurveline
            123 -89 257 168 55 -207 159 66 -110 189 32 20 30 28 18 34 259 callgsubr
            return
          </CharString>
          <CharString index="352">
            hstem
            120 150 vstem
            51 -85 rmoveto
            47 -55 rlineto
            88 36 84 92 82 vvcurveto
            53 -33 49 -74 29 vhcurveto
            -49 -27 -39 -41 -9 -59 54 -47 rcurveline
            -2 -32 -28 -47 -39 -33 rrcurveto
            return
          </CharString>
          <CharString index="353">
            -310 213 hstem
            -95 199 vstem
            15 -310 rmoveto
            45 24 29 36 15 46 -13 46 -44 39 -49 22 -48 -27 -37 -40 -8 134 callgsubr
            -28 51 -18 rrcurveto
            endchar
          </CharString>
          <CharString index="354">
            -181 rmoveto
            17 -41 rlineto
            206 12 73 96 75 vvcurveto
            489 -45 callsubr
            -465 vlineto
            -64 -45 -31 -50 -17 vhcurveto
            return
          </CharString>
          <CharString index="355">
            rmoveto
            23 15 11 14 14 12 -12 -15 -18 -18 -15 -27 -10 vhcurveto
            -7 13 -3 12 11 vvcurveto
            return
          </CharString>
          <CharString index="356">
            19 callgsubr
            12 11 1 2 11 vhcurveto
            -15 callsubr
            return
          </CharString>
          <CharString index="357">
            421 callsubr
            10 11 -5 -6 7 hvcurveto
            return
          </CharString>
          <CharString index="358">
            vlineto
            52 callsubr
            return
          </CharString>
          <CharString index="359">
            -50 callgsubr
            -153 return
          </CharString>
          <CharString index="360">
            rmoveto
            84 79 47 118 11 hvcurveto
            -123 1 rlineto
            return
          </CharString>
          <CharString index="361">
            479 callgsubr
            174 return
          </CharString>
          <CharString index="362">
            -25 -20 -20 -54 -14 vhcurveto
            35 -60 -64 16 -61 hhcurveto
            return
          </CharString>
          <CharString index="363">
            -186 79 134 -87 127 hhcurveto
            return
          </CharString>
          <CharString index="364">
            rmoveto
            158 379 callgsubr
            return
          </CharString>
          <CharString index="365">
            4 279 callgsubr
            return
          </CharString>
          <CharString index="366">
            -20 407 callsubr
            return
          </CharString>
          <CharString index="367">
            -227 194 return
          </CharString>
          <CharString index="368">
            80 callsubr
            27 25 5 11 24 hvcurveto
            -56 vlineto
            132 -69 54 27 rlineto
            return
          </CharString>
          <CharString index="369">
            179 -14 100 callgsubr
            return
          </CharString>
          <CharString index="370">
            -88 15 rlineto
            210 vlineto
            -13 119 rlineto
            return
          </CharString>
          <CharString index="371">
            -128 -20 98 318 108 return
          </CharString>
          <CharString index="372">
            -21 82 134 return
          </CharString>
          <CharString index="373">
            hlineto
            347 callsubr
            232 callgsubr
            return
          </CharString>
          <CharString index="374">
            308 callgsubr
            45 170 return
          </CharString>
          <CharString index="375">
            -38 -37 -6 -12 -33 hvcurveto
            -1 4 -1 5 258 callsubr
            283 hlineto
            return
          </CharString>
          <CharString index="376">
            435 callgsubr
            hlineto
            endchar
          </CharString>
          <CharString index="377">
            210 hintmask 1000100001000000
            518 callgsubr
            hintmask 0011000001000000
            -3 callsubr
            hintmask 1000010001000000
            -50 callsubr
            return
          </CharString>
          <CharString index="378">
            401 -194 170 -112 136 -136 323 -31 callsubr
            19 182 290 callgsubr
            154 160 return
          </CharString>
          <CharString index="379">
            599 160 callsubr
            -366 -185 160 callsubr
            endchar
          </CharString>
          <CharString index="380">
            rmoveto
            -79 callgsubr
            -4 -38 111 -201 rlineto
            endchar
          </CharString>
          <CharString index="381">
            231 callsubr
            65 return
          </CharString>
          <CharString index="382">
            387 rmoveto
            -44 callsubr
            return
          </CharString>
          <CharString index="383">
            -103 hlineto
            -133 63 rlineto
            -160 32 -98 -104 -108 vvcurveto
            return
          </CharString>
          <CharString index="384">
            -1 4 -1 4 375 callsubr
            return
          </CharString>
          <CharString index="385">
            -81 callsubr
            -679 hlineto
            endchar
          </CharString>
          <CharString index="386">
            114 115 -9 55 return
          </CharString>
          <CharString index="387">
            -19 -308 -36 callsubr
            return
          </CharString>
          <CharString index="388">
            684 152 callsubr
            return
          </CharString>
          <CharString index="389">
            -113 126 -72 79 18 16 4 6 15 vhcurveto
            -47 348 callgsubr
            return
          </CharString>
          <CharString index="390">
            vvcurveto
            -69 426 callsubr
            129 71 -26 54 rlineto
            -74 484 callsubr
            return
          </CharString>
          <CharString index="391">
            91 39 -106 callsubr
            return
          </CharString>
          <CharString index="392">
            -92 callsubr
            hstemhm
            314 155 return
          </CharString>
          <CharString index="393">
            -83 callgsubr
            119 hlineto
            4 return
          </CharString>
          <CharString index="394">
            98 9 -3 -89 -118 -41 return
          </CharString>
          <CharString index="395">
            401 callgsubr
            314 hlineto
            return
          </CharString>
          <CharString index="396">
            585 rmoveto
            -40 -54 rlineto
            -80 34 -56 71 68 vvcurveto
            40 23 46 64 16 vhcurveto
            40 -16 34 -40 7 -48 -51 -39 rcurveline
            1 -26 21 -23 37 -29 rrcurveto
            return
          </CharString>
          <CharString index="397">
            100 64 rlineto
            25 -14 13 -27 -25 vvcurveto
            -43 -35 -48 -67 -89 -59 84 121 -57 vhcurveto
            -96 -52 rlineto
            -249 111 127 -63 112 hhcurveto
            return
          </CharString>
          <CharString index="398">
            -6 7 -3 10 11 vvcurveto
            38 37 49 60 77 47 -78 -156 110 vhcurveto
            return
          </CharString>
          <CharString index="399">
            hlineto
            hintmask 1101010110000000
            340 callgsubr
            return
          </CharString>
          <CharString index="400">
            655 -537 155 209 127 callgsubr
            return
          </CharString>
          <CharString index="401">
            -59 -68 callgsubr
            -66 callgsubr
            return
          </CharString>
          <CharString index="402">
            2 -21 31 167 -167 186 -186 435 return
          </CharString>
          <CharString index="403">
            -160 32 -108 -103 -111 vvcurveto
            return
          </CharString>
          <CharString index="404">
            hvcurveto
            329 callsubr
            return
          </CharString>
          <CharString index="405">
            -92 callsubr
            hstemhm
            -65 return
          </CharString>
          <CharString index="406">
            -83 -92 56 89 -58 hvcurveto
            -78 -66 return
          </CharString>
          <CharString index="407">
            -83 callgsubr
            118 hlineto
            return
          </CharString>
          <CharString index="408">
            222 callgsubr
            30 26 5 11 25 hvcurveto
            -36 490 callsubr
            return
          </CharString>
          <CharString index="409">
            rmoveto
            12 591 callgsubr
            -60 vlineto
            -34 -43 -47 -23 -35 -7 rrcurveto
            57 -38 35 82 81 hhcurveto
            4 -265 rmoveto
            12 11 1 2 11 hvcurveto
            return
          </CharString>
          <CharString index="410">
            rmoveto
            -86 callgsubr
            return
          </CharString>
          <CharString index="411">
            44 callsubr
            -67 15 -58 -9 -44 211 callsubr
            return
          </CharString>
          <CharString index="412">
            -110 -50 10 -52 -39 -23 -48 -14 -48 9 rlinecurve
            -5 12 -3 11 11 vvcurveto
            43 42 36 106 52 vhcurveto
            79 -28 83 -11 70 13 rrcurveto
            return
          </CharString>
          <CharString index="413">
            525 callgsubr
            211 148 rlineto
            -58 vlineto
            -85 callsubr
            return
          </CharString>
          <CharString index="414">
            347 callgsubr
            -31 callsubr
            return
          </CharString>
          <CharString index="415">
            57 -6 -20 26 -20 66 443 callsubr
            return
          </CharString>
          <CharString index="416">
            63 -86 rlineto
            78 hlineto
            -8 -17 -5 -19 -21 vvcurveto
            -69 51 -63 71 -42 vhcurveto
            return
          </CharString>
          <CharString index="417">
            -66 60 -39 44 51 vvcurveto
            52 42 31 53 return
          </CharString>
          <CharString index="418">
            rmoveto
            72 -68 591 618 -71 70 rlineto
            return
          </CharString>
          <CharString index="419">
            hlineto
            11 -39 33 -40 58 -40 return
          </CharString>
          <CharString index="420">
            55 -32 32 205 callgsubr
            return
          </CharString>
          <CharString index="421">
            3 -61 -76 -58 -72 15 rrcurveto
            return
          </CharString>
          <CharString index="422">
            798 rmoveto
            45 -107 -72 90 384 callgsubr
            return
          </CharString>
          <CharString index="423">
            27 -6 15 -22 -23 vvcurveto
            -22 -16 -25 -38 -4 vhcurveto
            return
          </CharString>
          <CharString index="424">
            -33 -54 -53 -49 32 122 -81 vhcurveto
            -86 -66 rlineto
            return
          </CharString>
          <CharString index="425">
            -20 72 376 callsubr
            return
          </CharString>
          <CharString index="426">
            49 -18 59 -39 48 vhcurveto
            return
          </CharString>
          <CharString index="427">
            109 122 123 return
          </CharString>
          <CharString index="428">
            140 -140 499 -499 506 472 callgsubr
            65 601 callgsubr
            450 163 return
          </CharString>
          <CharString index="429">
            -83 callgsubr
            292 hlineto
            23 -19 11 -18 -22 vvcurveto
            -21 -10 -18 -18 -14 vhcurveto
            -52 -3 -63 -27 -37 -34 110 -162 rcurveline
            return
          </CharString>
          <CharString index="430">
            rmoveto
            99 -70 176 178 rlineto
            92 vlineto
            -176 181 -92 -65 return
          </CharString>
          <CharString index="431">
            85 523 rmoveto
            -65 337 callgsubr
            return
          </CharString>
          <CharString index="432">
            -108 9 78 -56 93 hhcurveto
            endchar
          </CharString>
          <CharString index="433">
            -111 -55 -59 -64 return
          </CharString>
          <CharString index="434">
            300 callsubr
            7 -177 rlineto
            -76 hlineto
            -36 -58 25 -86 115 517 callsubr
            65 40 rlineto
            73 157 return
          </CharString>
          <CharString index="435">
            84 callgsubr
            -88 -56 -64 -61 -48 33 -51 74 -51 vhcurveto
            69 42 rlineto
            return
          </CharString>
          <CharString index="436">
            -54 vlineto
            -85 callsubr
            return
          </CharString>
          <CharString index="437">
            186 hintmask 11101110
            -13 callgsubr
            return
          </CharString>
          <CharString index="438">
            230 -255 hlineto
            -58 -51 433 callsubr
            return
          </CharString>
          <CharString index="439">
            299 callsubr
            23 -34 25 -30 26 -26 rlinecurve
            -37 -34 -17 -38 -37 vvcurveto
            -54 36 -52 60 -29 vhcurveto
            return
          </CharString>
          <CharString index="440">
            rmoveto
            59 32 -61 -70 -55 -19 -58 -34 -35 hvcurveto
            -22 -3 -20 1 -20 4 rrcurveto
            274 vlineto
            2 8 8 1 8 hhcurveto
            return
          </CharString>
          <CharString index="441">
            209 callsubr
            hvcurveto
            return
          </CharString>
          <CharString index="442">
            -99 170 30 20 28 27 17 32 259 callgsubr
            return
          </CharString>
          <CharString index="443">
            -106 callsubr
            196 return
          </CharString>
          <CharString index="444">
            160 -35 141 -62 542 callgsubr
            return
          </CharString>
          <CharString index="445">
            32 15 15 27 27 vvcurveto
            49 -50 48 -79 vhcurveto
            return
          </CharString>
          <CharString index="446">
            -11 16 -6 13 19 vvcurveto
            46 36 39 80 vhcurveto
            return
          </CharString>
          <CharString index="447">
            186 vlineto
            50 49 53 27 50 hhcurveto
            return
          </CharString>
          <CharString index="448">
            -83 callgsubr
            399 -36 -136 hlineto
            return
          </CharString>
          <CharString index="449">
            1 -43 157 callsubr
            return
          </CharString>
          <CharString index="450">
            392 callgsubr
            rrcurveto
            return
          </CharString>
          <CharString index="451">
            -70 hlineto
            -189 -72 -115 return
          </CharString>
          <CharString index="452">
            rlinecurve
            300 callgsubr
            return
          </CharString>
          <CharString index="453">
            -32 54 57 -14 50 hhcurveto
            return
          </CharString>
          <CharString index="454">
            -7 -18 -4 -20 -19 vvcurveto
            return
          </CharString>
          <CharString index="455">
            -72 -54 38 74 -13 hvcurveto
            return
          </CharString>
          <CharString index="456">
            22 19 17 37 vhcurveto
            return
          </CharString>
          <CharString index="457">
            185 callgsubr
            -38 -100 362 callsubr
            return
          </CharString>
          <CharString index="458">
            293 347 99 callsubr
            return
          </CharString>
          <CharString index="459">
            -1 -55 80 -14 rlineto
            -302 vlineto
            -85 -11 -64 -23 -32 vhcurveto
            -17 -20 -26 -10 -33 hhcurveto
            -74 -60 47 123 hvcurveto
            return
          </CharString>
          <CharString index="460">
            78 68 34 46 50 hvcurveto
            -51 66 88 -29 490 callgsubr
            return
          </CharString>
          <CharString index="461">
            -99 callsubr
            hintmask 1001000001100000
            -1 -55 rlineto
            hintmask 1010000001100000
            77 -13 rlineto
            return
          </CharString>
          <CharString index="462">
            172 230 callsubr
            return
          </CharString>
          <CharString index="463">
            -83 callgsubr
            653 -34 callgsubr
            -32 -31 -22 -90 -15 vhcurveto
            -37 -5 -46 -2 -47 7 rrcurveto
            return
          </CharString>
          <CharString index="464">
            rmoveto
            63 -44 42 96 100 hhcurveto
            28 25 -8 -14 28 hvcurveto
            -94 10 -72 -53 -69 hhcurveto
            381 callgsubr
            return
          </CharString>
          <CharString index="465">
            -84 132 rlineto
            -37 -29 -76 -39 -38 hhcurveto
            -15 -8 7 8 20 46 22 86 17 hvcurveto
            27 52 -64 90 rlineto
            return
          </CharString>
          <CharString index="466">
            437 165 rmoveto
            34 22 16 17 12 14 -9 -22 -27 -21 -22 -33 -14 vhcurveto
            -8 16 -3 14 14 vvcurveto
            return
          </CharString>
          <CharString index="467">
            -83 callgsubr
            126 hlineto
            25 49 -81 callsubr
            -126 hlineto
            return
          </CharString>
          <CharString index="468">
            rmoveto
            349 callgsubr
            226 -202 hlineto
            -53 -23 return
          </CharString>
          <CharString index="469">
            15 callgsubr
            -206 114 return
          </CharString>
          <CharString index="470">
            -83 callgsubr
            355 -73 344 callsubr
            -105 return
          </CharString>
          <CharString index="471">
            569 callsubr
            -46 -20 vhcurveto
            return
          </CharString>
          <CharString index="472">
            343 callsubr
            endchar
          </CharString>
          <CharString index="473">
            rmoveto
            72 36 rlineto
            return
          </CharString>
          <CharString index="474">
            552 callgsubr
            610 hlineto
            hintmask 11001010
            -69 callsubr
            hintmask 11010010
            -81 callsubr
            -610 hlineto
            endchar
          </CharString>
          <CharString index="475">
            67 callgsubr
            71 95 rlineto
            return
          </CharString>
          <CharString index="476">
            hhcurveto
            24 22 5 8 21 hvcurveto
            -54 -96 callsubr
            return
          </CharString>
          <CharString index="477">
            -74 108 rlineto
            -105 hlineto
            -112 -48 -66 -65 -22 6 -23 11 -21 hvcurveto
            -50 -56 -90 -55 -73 13 rrcurveto
            return
          </CharString>
          <CharString index="478">
            vlineto
            hintmask 10110000
            126 callgsubr
            return
          </CharString>
          <CharString index="479">
            572 51 callsubr
            return
          </CharString>
          <CharString index="480">
            234 callsubr
            -187 -100 97 vlineto
            return
          </CharString>
          <CharString index="481">
            158 callgsubr
            -8 -20 hstemhm
            return
          </CharString>
          <CharString index="482">
            258 callsubr
            303 hlineto
            return
          </CharString>
          <CharString index="483">
            132 -102 102 -102 126 -73 49 hstemhm
            return
          </CharString>
          <CharString index="484">
            470 callgsubr
            endchar
          </CharString>
          <CharString index="485">
            -81 callsubr
            -800 hlineto
            endchar
          </CharString>
          <CharString index="486">
            36 -30 56 -18 50 -2 return
          </CharString>
          <CharString index="487">
            -55 49 25 79 55 -12 return
          </CharString>
          <CharString index="488">
            110 186 return
          </CharString>
          <CharString index="489">
            154 440 callgsubr
            hintmask 10100000
            return
          </CharString>
          <CharString index="490">
            383 -102 102 103 103 callgsubr
            return
          </CharString>
          <CharString index="491">
            -58 -17 141 -120 -21 418 98 -3 -20 207 -20 hstemhm
            8 209 109 201 return
          </CharString>
          <CharString index="492">
            108 -40 67 77 51 143 -8 65 rlinecurve
            -124 24 -53 -57 6 -43 -17 -96 -30 -73 rlinecurve
            return
          </CharString>
          <CharString index="493">
            68 callgsubr
            25 49 -81 callsubr
            return
          </CharString>
          <CharString index="494">
            -83 callgsubr
            309 -73 -32 hlineto
            -172 -76 -95 -95 return
          </CharString>
          <CharString index="495">
            3 3 0 3 hhcurveto
            -100 vlineto
            -85 callsubr
            return
          </CharString>
          <CharString index="496">
            -239 rmoveto
            21 -34 136 -4 74 71 2 64 rlinecurve
            return
          </CharString>
          <CharString index="497">
            62 45 58 92 vhcurveto
            199 hlineto
            return
          </CharString>
          <CharString index="498">
            399 callsubr
            178 hlineto
            return
          </CharString>
          <CharString index="499">
            304 239 callsubr
            return
          </CharString>
          <CharString index="500">
            206 147 163 165 return
          </CharString>
          <CharString index="501">
            63 vvcurveto
            56 -35 51 -54 44 vhcurveto
            return
          </CharString>
          <CharString index="502">
            -100 69 -93 118 -112 return
          </CharString>
          <CharString index="503">
            -402 531 274 hstem
            return
          </CharString>
          <CharString index="504">
            hlineto
            -17 32 -7 30 26 vvcurveto
            return
          </CharString>
          <CharString index="505">
            169 callgsubr
            rrcurveto
            return
          </CharString>
          <CharString index="506">
            53 41 50 90 vhcurveto
            return
          </CharString>
          <CharString index="507">
            rlineto
            115 hlineto
            return
          </CharString>
          <CharString index="508">
            346 callgsubr
            hintmask 1100101000100000
            -69 callsubr
            hintmask 1100110000100000
            -81 callsubr
            -810 hlineto
            return
          </CharString>
          <CharString index="509">
            vvcurveto
            -181 233 -105 339 callgsubr
            -148 33 102 vvcurveto
            return
          </CharString>
          <CharString index="510">
            rmoveto
            12 12 -2 -4 13 hvcurveto
            -60 vlineto
            -34 -43 -47 -23 -35 -7 rrcurveto
            44 -38 34 95 83 hhcurveto
            return
          </CharString>
          <CharString index="511">
            rmoveto
            10 12 -2 -6 14 hvcurveto
            -30 vlineto
            -30 -36 -45 -21 -27 -6 rrcurveto
            54 -24 45 47 45 hhcurveto
            return
          </CharString>
          <CharString index="512">
            27 callsubr
            331 23 callgsubr
            78 469 return
          </CharString>
          <CharString index="513">
            hlineto
            -322 hlineto
            -122 -100 -87 -127 hvcurveto
            endchar
          </CharString>
          <CharString index="514">
            hstemhm
            83 201 return
          </CharString>
          <CharString index="515">
            -50 120 hstemhm
            return
          </CharString>
          <CharString index="516">
            rmoveto
            203 vlineto
            125 -187 rlineto
            -15 -25 -30 -8 -25 hhcurveto
            -12 -20 2 5 -13 hvcurveto
            return
          </CharString>
          <CharString index="517">
            rmoveto
            -9 9 -4 12 14 vvcurveto
            60 75 40 80 vhcurveto
            -70 vlineto
            505 callgsubr
            return
          </CharString>
          <CharString index="518">
            -62 63 87 -45 79 hhcurveto
            23 21 4 7 20 hvcurveto
            51 -58 76 -56 104 -55 71 95 rcurveline
            return
          </CharString>
          <CharString index="519">
            -54 97 -54 10 -48 -9 -36 -21 rlinecurve
            -5 9 -2 10 10 vvcurveto
            25 14 23 28 7 vhcurveto
            return
          </CharString>
          <CharString index="520">
            111 callgsubr
            98 -278 445 callsubr
            return
          </CharString>
          <CharString index="521">
            199 163 451 callgsubr
            231 hlineto
            25 49 -81 callsubr
            -699 hlineto
            endchar
          </CharString>
          <CharString index="522">
            145 -12 -106 callsubr
            return
          </CharString>
          <CharString index="523">
            rcurveline
            59 callsubr
            36 48 return
          </CharString>
          <CharString index="524">
            -246 4 -21 366 125 -124 263 return
          </CharString>
          <CharString index="525">
            110 callsubr
            rlineto
            return
          </CharString>
          <CharString index="526">
            -68 callgsubr
            424 callsubr
            return
          </CharString>
          <CharString index="527">
            -31 callsubr
            29 return
          </CharString>
          <CharString index="528">
            212 vlineto
            45 44 49 36 28 hhcurveto
            return
          </CharString>
          <CharString index="529">
            23 callgsubr
            15 return
          </CharString>
          <CharString index="530">
            259 -112 112 -106 121 return
          </CharString>
          <CharString index="531">
            535 346 callgsubr
            return
          </CharString>
          <CharString index="532">
            -402 531 275 return
          </CharString>
          <CharString index="533">
            65 -59 96 12 vhcurveto
            return
          </CharString>
          <CharString index="534">
            rmoveto
            472 callsubr
            return
          </CharString>
          <CharString index="535">
            hlineto
            1 55 rlineto
            return
          </CharString>
          <CharString index="536">
            153 -153 return
          </CharString>
          <CharString index="537">
            98 -17 52 53 58 hhcurveto
            20 20 -7 -13 19 hvcurveto
            31 -84 114 -102 82 -24 rrcurveto
            return
          </CharString>
          <CharString index="538">
            98 callgsubr
            -94 60 -78 79 -52 hvcurveto
            return
          </CharString>
          <CharString index="539">
            98 callgsubr
            -95 61 -79 80 -51 hvcurveto
            return
          </CharString>
          <CharString index="540">
            92 -123 rlineto
            91 44 61 44 134 vvcurveto
            155 -96 callgsubr
            168 hlineto
            return
          </CharString>
          <CharString index="541">
            577 213 callsubr
          </CharString>
          <CharString index="542">
            122 callsubr
            280 vlineto
            return
          </CharString>
          <CharString index="543">
            64 317 -44 37 rlineto
            -66 -67 -15 -23 -39 hvcurveto
            36 -202 7 -259 rlineto
            return
          </CharString>
          <CharString index="544">
            393 callgsubr
            -87 -218 rmoveto
            3 -15 rlineto
            215 30 hlineto
            return
          </CharString>
          <CharString index="545">
            162 176 68 callsubr
            181 return
          </CharString>
          <CharString index="546">
            rmoveto
            65 66 36 41 -46 vhcurveto
            -45 -31 -35 -56 -31 vhcurveto
            -13 16 -7 18 22 vvcurveto
            return
          </CharString>
          <CharString index="547">
            hintmask 11001100
            -29 callgsubr
            hintmask 11100100
            -83 callgsubr
            return
          </CharString>
          <CharString index="548">
            hlineto
            hintmask 01001010
            -69 callsubr
            hintmask 01010010
            -81 callsubr
            return
          </CharString>
          <CharString index="549">
            -83 callgsubr
            313 559 callgsubr
            return
          </CharString>
          <CharString index="550">
            -92 callsubr
            hstemhm
            409 186 return
          </CharString>
          <CharString index="551">
            107 52 75 79 42 -15 39 -31 34 hvcurveto
            99 return
          </CharString>
          <CharString index="552">
            hlineto
            -85 callsubr
            return
          </CharString>
          <CharString index="553">
            hvcurveto
            349 callgsubr
            return
          </CharString>
          <CharString index="554">
            -107 -40 callsubr
            hstemhm
            return
          </CharString>
          <CharString index="555">
            vhcurveto
            566 callgsubr
            return
          </CharString>
          <CharString index="556">
            153 107 133 return
          </CharString>
          <CharString index="557">
            rlineto
            115 vlineto
            return
          </CharString>
          <CharString index="558">
            hintmask 0110100110000000
            -102 callsubr
            return
          </CharString>
          <CharString index="559">
            276 callgsubr
            178 158 return
          </CharString>
          <CharString index="560">
            148 -102 rlineto
            524 callsubr
            return
          </CharString>
          <CharString index="561">
            260 callgsubr
            -2 156 -107 593 callsubr
            86 607 callgsubr
            return
          </CharString>
          <CharString index="562">
            34 70 callgsubr
            46 429 callsubr
            return
          </CharString>
          <CharString index="563">
            vvcurveto
            394 callgsubr
            393 callsubr
            vhcurveto
            return
          </CharString>
          <CharString index="564">
            286 82 427 callsubr
            90 -182 vlineto
            -85 callsubr
            return
          </CharString>
          <CharString index="565">
            110 hstem
            52 490 vstem
            52 320 rmoveto
            -110 490 110 vlineto
            return
          </CharString>
          <CharString index="566" raw="1">
            054c2b0a 0b  
          </CharString>
          <CharString index="567">
            91 callsubr
            411 503 callgsubr
            return
          </CharString>
          <CharString index="568">
            642 290.43 -175.70999 175.71 hstemhm
            return
          </CharString>
          <CharString index="569">
            -128 172 -147 142 vhcurveto
            endchar
          </CharString>
          <CharString index="570">
            hintmask 10110000
            8 35 rmoveto
            1 -35 rlineto
            return
          </CharString>
          <CharString index="571">
            -186 223 -147 164 return
          </CharString>
          <CharString index="572">
            504 callsubr
            hlineto
            return
          </CharString>
          <CharString index="573">
            52 -92 callsubr
            hstemhm
            return
          </CharString>
          <CharString index="574">
            -237 327 callgsubr
            return
          </CharString>
          <CharString index="575">
            -47 -4 -26 -20 -30 hhcurveto
            return
          </CharString>
          <CharString index="576">
            -273 217 -62 62 return
          </CharString>
          <CharString index="577">
            72 -54 96 -126 33 return
          </CharString>
          <CharString index="578">
            hstemhm
            -20 777 return
          </CharString>
          <CharString index="579">
            65 37 rlineto
            86 return
          </CharString>
          <CharString index="580">
            vlineto
            -74 74 rlineto
            63 34 36 62 65 299 callgsubr
            return
          </CharString>
          <CharString index="581">
            -31 73 497 callsubr
            return
          </CharString>
          <CharString index="582">
            -30 -57 62 -97 rlineto
            -19 -27 -34 -11 -36 hhcurveto
            -12 -11 1 2 -12 hvcurveto
            return
          </CharString>
          <CharString index="583">
            593 407 -184 188 -138 134 hstemhm
            -628 696 return
          </CharString>
          <CharString index="584">
            -305 -57 callgsubr
            return
          </CharString>
          <CharString index="585">
            vlineto
            hintmask 10110000
            396 callgsubr
            return
          </CharString>
          <CharString index="586">
            29 -106 callsubr
            return
          </CharString>
          <CharString index="587">
            122 -99 106 127 123 -129 return
          </CharString>
          <CharString index="588">
            168 callsubr
            153 160 return
          </CharString>
          <CharString index="589">
            543 callsubr
            222 callsubr
            return
          </CharString>
          <CharString index="590">
            rmoveto
            45 24 29 35 return
          </CharString>
          <CharString index="591">
            -45 -56 18 53 vvcurveto
            return
          </CharString>
          <CharString index="592">
            156 -91 91 return
          </CharString>
          <CharString index="593">
            -864 -5 callgsubr
            return
          </CharString>
          <CharString index="594">
            -30 -31 528 callgsubr
            rrcurveto
            return
          </CharString>
          <CharString index="595">
            89 -80 157 -144 -89 -80 -61 -93 -60 34 -58 52 -49 vhcurveto
            return
          </CharString>
          <CharString index="596">
            23 26 16 34 33 vvcurveto
            55 -45 57 -68 -37 -29 -17 -26 -20 vhcurveto
            return
          </CharString>
          <CharString index="597">
            vlineto
            -85 callsubr
            27 callgsubr
            return
          </CharString>
          <CharString index="598">
            -81 callsubr
            -653 hlineto
            endchar
          </CharString>
          <CharString index="599">
            130 186 return
          </CharString>
          <CharString index="600">
            -22 -3 48 -45 72 431 -20 200 -20 hstemhm
            84 201 return
          </CharString>
          <CharString index="601">
            99 hlineto
            15 47 5 49 -5 48 rrcurveto
            24 -47 -64 10 -53 hhcurveto
            return
          </CharString>
          <CharString index="602">
            rmoveto
            120 callsubr
            return
          </CharString>
          <CharString index="603">
            146 callsubr
            362 hlineto
            242 117 163 176 return
          </CharString>
          <CharString index="604">
            hhcurveto
            400 callgsubr
            297 callsubr
            return
          </CharString>
          <CharString index="605">
            rmoveto
            521 callgsubr
            return
          </CharString>
          <CharString index="606">
            425 362 rmoveto
            -46 124 451 callgsubr
            299 hlineto
            return
          </CharString>
          <CharString index="607">
            195 callsubr
            421 -20 return
          </CharString>
          <CharString index="608">
            -25 55 rlineto
            -75 484 callsubr
            return
          </CharString>
          <CharString index="609">
            129 -96 callgsubr
            211 hlineto
            return
          </CharString>
          <CharString index="610">
            -160 vlineto
            -6 0 -7 1 -6 vhcurveto
            return
          </CharString>
          <CharString index="611">
            68 -96 callgsubr
            402 return
          </CharString>
          <CharString index="612">
            -35 -17 -34 -18 -26 -21 rrcurveto
            return
          </CharString>
          <CharString index="613">
            186 93 485 callsubr
            return
          </CharString>
          <CharString index="614">
            -26 -12 -24 -15 1 -35 rcurveline
            return
          </CharString>
          <CharString index="615">
            -3 -25 8 -65 7 -24 rrcurveto
            return
          </CharString>
          <CharString index="616">
            145 -145 317 return
          </CharString>
          <CharString index="617">
            -15 -15 2 5 -12 hvcurveto
            return
          </CharString>
          <CharString index="618">
            -74 -44 -49 -52 -75 vvcurveto
            return
          </CharString>
          <CharString index="619">
            -147 188 -111 return
          </CharString>
          <CharString index="620">
            -119 rcurveline
            128 -105 return
          </CharString>
          <CharString index="621">
            -1 -55 77 -13 rlineto
            return
          </CharString>
          <CharString index="622" raw="1">
            bc12a9f7 590b  
          </CharString>
          <CharString index="623">
            153 78 155 return
          </CharString>
          <CharString index="624">
            -100 86 -25 rlinecurve
            return
          </CharString>
          <CharString index="625">
            31 611 rmoveto
            return
          </CharString>
          <CharString index="626">
            300 callgsubr
            391 callsubr
            return
          </CharString>
          <CharString index="627">
            164.5 -2 -20 22 -20 hstemhm
            362 182 return
          </CharString>
          <CharString index="628">
            hhcurveto
            -47 -59 -15 -61 -52 hvcurveto
            108 -143 106 86 rlineto
            return
          </CharString>
          <CharString index="629">
            143 -116 150 -139 -71 -35 -39 -69 -39 vhcurveto
            return
          </CharString>
          <CharString index="630">
            -92 callsubr
            hstemhm
            326 165 -97 166 return
          </CharString>
          <CharString index="631">
            60 39 36 54 64 vvcurveto
            124 -132 82 -140 vhcurveto
            return
          </CharString>
          <CharString index="632">
            hlineto
            hintmask 1101010101000000
            -69 callsubr
            hintmask 1101100101000000
            -81 callsubr
            return
          </CharString>
          <CharString index="633">
            hlineto
            hintmask 1110101010000000
            -69 callsubr
            hintmask 1111001010000000
            -81 callsubr
            return
          </CharString>
          <CharString index="634">
            130 callgsubr
            -282 hlineto
            return
          </CharString>
          <CharString index="635">
            260 callgsubr
            -115 403 -211 172 return
          </CharString>
          <CharString index="636">
            -106 callsubr
            374 186 return
          </CharString>
          <CharString index="637">
            -38 -43 164 174 170 21 607 callgsubr
            return
          </CharString>
          <CharString index="638">
            330 callgsubr
            -130 508 callgsubr
            return
          </CharString>
          <CharString index="639">
            99 9 162 53 321 callgsubr
            hstemhm
            34 169 return
          </CharString>
          <CharString index="640">
            -296 0 49 -49 72 611 259 callsubr
            return
          </CharString>
          <CharString index="641">
            239 callsubr
            220 -189 -144 hlineto
            return
          </CharString>
          <CharString index="642">
            14 44 callsubr
            return
          </CharString>
          <CharString index="643">
            92 -74 86 -93 -92 -72 -86 -92 return
          </CharString>
          <CharString index="644">
            74 -74 336 -158 158 return
          </CharString>
          <CharString index="645">
            -338 -64 callgsubr
            return
          </CharString>
          <CharString index="646">
            584 callgsubr
            -65 return
          </CharString>
          <CharString index="647">
            -66 137 rlineto
            -31 -39 -72 -38 return
          </CharString>
          <CharString index="648">
            -127 79 112 return
          </CharString>
          <CharString index="649">
            2 -21 31 -21 91 return
          </CharString>
          <CharString index="650">
            157 -157 return
          </CharString>
          <CharString index="651">
            96 71 64 80 19 hvcurveto
            33 -18 36 -11 38 5 return
          </CharString>
          <CharString index="652">
            -142 -20 203 118 204 hstem
            31 105 return
          </CharString>
          <CharString index="653">
            25 30 10 35 30 vvcurveto
            39 -18 34 -32 31 vhcurveto
            return
          </CharString>
          <CharString index="654">
            751 160 44 542 callgsubr
            -634 return
          </CharString>
          <CharString index="655">
            -98 hlineto
            -83 45 rlineto
            -146 30 -85 -101 -99 vvcurveto
            return
          </CharString>
          <CharString index="656">
            -106 callsubr
            54 159 return
          </CharString>
          <CharString index="657">
            59 callsubr
            36 48 -39 return
          </CharString>
          <CharString index="658">
            428 callsubr
            hintmask 01010100
            return
          </CharString>
          <CharString index="659">
            -81 callsubr
            -705 hlineto
            endchar
          </CharString>
          <CharString index="660">
            -23 callsubr
            endchar
          </CharString>
          <CharString index="661">
            543 callsubr
            327 return
          </CharString>
          <CharString index="662">
            366 callgsubr
            rlineto
            return
          </CharString>
          <CharString index="663">
            hvcurveto
            -101 153 -72 -73 return
          </CharString>
          <CharString index="664">
            264 -117 117 return
          </CharString>
          <CharString index="665">
            -46 -56 -16 -18 -28 hvcurveto
            return
          </CharString>
          <CharString index="666">
            -46 59 rlineto
            -380 hlineto
            return
          </CharString>
          <CharString index="667">
            366 callsubr
            112 return
          </CharString>
          <CharString index="668">
            20 -53 rlineto
            241 hlineto
            return
          </CharString>
          <CharString index="669">
            212 -169 return
          </CharString>
          <CharString index="670">
            hvcurveto
            -7 6 -4 return
          </CharString>
          <CharString index="671">
            149 -149 return
          </CharString>
          <CharString index="672">
            156 -156 return
          </CharString>
          <CharString index="673">
            hlineto
            hintmask 01100000
            47 50 rlineto
            hintmask 10100000
            -5 59 rlineto
            return
          </CharString>
          <CharString index="674">
            165 75 191 -171 162 hintmask 11110000
            return
          </CharString>
          <CharString index="675">
            486 -106 callsubr
            return
          </CharString>
          <CharString index="676">
            28 callsubr
            -68 -46 -37 return
          </CharString>
          <CharString index="677">
            98 -98 314 -253 37 172 44 hstemhm
            return
          </CharString>
          <CharString index="678">
            282 588 -40 callgsubr
            return
          </CharString>
          <CharString index="679">
            -227 -122 834 -102 102 -64 64 hstemhm
            return
          </CharString>
          <CharString index="680">
            -145 127 27 -21 620 121 hstemhm
            return
          </CharString>
          <CharString index="681">
            -60 60 -58 75 50 vvcurveto
            36 31 49 61 vhcurveto
            return
          </CharString>
          <CharString index="682">
            -476 149 118 151 46 168 return
          </CharString>
          <CharString index="683">
            hvcurveto
            15 callgsubr
            return
          </CharString>
          <CharString index="684">
            512 callsubr
            144 vhcurveto
            endchar
          </CharString>
          <CharString index="685">
            -242 119 81 163 return
          </CharString>
          <CharString index="686">
            53 39 52 81 vhcurveto
            163 return
          </CharString>
          <CharString index="687">
            115 87 88 7 136 return
          </CharString>
          <CharString index="688">
            87 -61 90 -81 50 vhcurveto
            60 return
          </CharString>
          <CharString index="689">
            321 -55 rmoveto
            71 95 rlineto
            return
          </CharString>
          <CharString index="690">
            36 -130 rlineto
            123 hlineto
            return
          </CharString>
          <CharString index="691">
            -83 callgsubr
            30 -160 hlineto
            return
          </CharString>
          <CharString index="692">
            166 -46 146 return
          </CharString>
          <CharString index="693">
            8 202 114 return
          </CharString>
          <CharString index="694">
            155 26 186 return
          </CharString>
          <CharString index="695">
            -61 143 -80 -21 return
          </CharString>
          <CharString index="696">
            -402 675 -20 return
          </CharString>
          <CharString index="697">
            102 -102 171 hstemhm
            return
          </CharString>
          <CharString index="698">
            rmoveto
            98 83 rlineto
            return
          </CharString>
          <CharString index="699">
            hvcurveto
            -78 -66 rlineto
            return
          </CharString>
          <CharString index="700">
            156 -58 58 return
          </CharString>
          <CharString index="701">
            51 -17 rrcurveto
            endchar
          </CharString>
          <CharString index="702">
            -67 -50 131 585 -20 21 -20 hstemhm
            return
          </CharString>
          <CharString index="703">
            -31 181 77 114 98 161 hstem
            return
          </CharString>
          <CharString index="704">
            40 -106 callsubr
            return
          </CharString>
          <CharString index="705">
            vlineto
            -55 54 rlineto
            -17 44 44 -8 39 hhcurveto
            return
          </CharString>
          <CharString index="706">
            144 hstemhm
            27 565 callsubr
            481 return
          </CharString>
          <CharString index="707">
            -322 hlineto
            -35 -56 -72 -36 -70 -7 rrcurveto
            return
          </CharString>
          <CharString index="708">
            144 hstem
            -353 145 vstem
            -182 return
          </CharString>
          <CharString index="709">
            641 rmoveto
            7 -172 rlineto
            -108 hlineto
            return
          </CharString>
          <CharString index="710">
            -482 133 136 146 76 -21 return
          </CharString>
          <CharString index="711">
            20 -76 100 -116 63 -34 rrcurveto
            endchar
          </CharString>
          <CharString index="712">
            rmoveto
            hintmask 1010010100000000
            return
          </CharString>
          <CharString index="713">
            hstemhm
            85 202 return
          </CharString>
          <CharString index="714">
            -59 -239 rmoveto
            return
          </CharString>
          <CharString index="715">
            65 37 rlineto
            81 return
          </CharString>
          <CharString index="716">
            rmoveto
            -258 145 258 vlineto
            return
          </CharString>
          <CharString index="717">
            217 111 -58 58 hstemhm
            34 return
          </CharString>
          <CharString index="718">
            45 155 196 165 hstem
            return
          </CharString>
          <CharString index="719">
            -86 96 -61 27 -17 vhcurveto
            endchar
          </CharString>
          <CharString index="720">
            hintmask 101000010001001111101000
            return
          </CharString>
          <CharString index="721">
            113 103 115 return
          </CharString>
          <CharString index="722">
            185 183 186 return
          </CharString>
          <CharString index="723">
            hintmask 001000100010011100100000
            return
          </CharString>
          <CharString index="724">
            hintmask 110101001000011110000000
            return
          </CharString>
          <CharString index="725">
            rlineto
            hintmask 1001010011100000
            return
          </CharString>
          <CharString index="726">
            -347 795 rmoveto
            return
          </CharString>
          <CharString index="727">
            69 6 26 26 18 hhcurveto
            11 8 -9 -14 -19 -14 -12 -24 -29 hvcurveto
            return
          </CharString>
          <CharString index="728">
            112 142 vlineto
            -123 80 108 -58 104 hhcurveto
            return
          </CharString>
          <CharString index="729">
            161 -137 150 -150 151 return
          </CharString>
          <CharString index="730">
            -28 -634 135 206 119 return
          </CharString>
          <CharString index="731">
            400 -20 rmoveto
            231 87 rlineto
            return
          </CharString>
          <CharString index="732">
            hintmask 1010110011100000
            return
          </CharString>
          <CharString index="733">
            hintmask 1001000110011100
            return
          </CharString>
          <CharString index="734">
            hintmask 1000110011000000
            return
          </CharString>
          <CharString index="735">
            -77 156 return
          </CharString>
        <CharString name=".notdef">
          -155 23 131 174 130 hstem
          47 123 174 121 vstem
          47 458 rmoveto
          -435 418 435 vlineto
          -121 -304 rmoveto
          -174 174 174 hlineto
          endchar
        </CharString>
        <CharString name="A">
          -53 callsubr
          endchar
        </CharString>
        <CharString name="AE">
          315 0 113 -113 222.5 -60.5 92 28.5 383.5 -215 215 -105 105 367 callgsubr
          hstemhm
          418 202 hintmask 1010010010000000
          287 254 rmoveto
          131 264 rlineto
          -264 vlineto
          -438 -221 rmoveto
          6 -33 rlineto
          287 hlineto
          1 55 -80 14 47 93 rlineto
          177 -77 hlineto
          -29 -15 -33 -18 -23 -19 6 -33 rcurveline
          564 1 hlineto
          17 -1 rlineto
          hintmask 0100010010000000
          -3 callgsubr
          hintmask 1011000010000000
          -38 -109 -159 -10 rlineto
          179 vlineto
          211 -9 450 callsubr
          -211 -18 rlineto
          hintmask 1010010010000000
          191 vlineto
          152 -10 rlineto
          hintmask 1010100010000000
          20 -105 400 callsubr
          hintmask 1010010010000000
          74 callsubr
          -667 hlineto
          hintmask 1010000110000000
          -1 -55 rlineto
          hintmask 1010001010000000
          77 -13 -260 -507 rlineto
          hintmask 1010010010000000
          -29 -15 -41 -21 -27 -22 rrcurveto
          endchar
        </CharString>
        <CharString name="Aacute">
          106 callsubr
          -227 83 21 callsubr
          -196 -668 -26 callsubr
          endchar
        </CharString>
        <CharString name="Abreve">
          -1 callsubr
        </CharString>
        <CharString name="Acircumflex">
          -53 callsubr
          -259 515 97 callgsubr
        </CharString>
        <CharString name="Adieresis">
          -53 callsubr
          -156 470 rmoveto
          -104 callsubr
          257 -69 callgsubr
        </CharString>
        <CharString name="Agrave">
          106 callsubr
          25 -6 152 callsubr
          -199 -430 -26 callsubr
          endchar
        </CharString>
        <CharString name="Alpha">
          -53 callsubr
          endchar
        </CharString>
        <CharString name="Alphaacute">
          500 callsubr
          471 callsubr
          -41 callsubr
          -402 201 callsubr
          endchar
        </CharString>
        <CharString name="Alphaasper">
          195 callsubr
          424 -20 471 callsubr
          -750 -64 callgsubr
          -41 callsubr
          hintmask 10100100
          -255 149 rmoveto
          hintmask 10101000
          -77 callgsubr
          hintmask 10100100
          -98 callsubr
        </CharString>
        <CharString name="Alphaasperacute">
          318 callgsubr
          -190 -64 callgsubr
          -168 947 hintmask 10010010
          -94 callsubr
          hintmask 01010010
          -20 callsubr
          hintmask 10100010
          -100 callsubr
          -385 201 callsubr
          hintmask 10010100
          -116 -272 rmoveto
          hintmask 10011000
          -77 callgsubr
          hintmask 10010100
          -98 callsubr
        </CharString>
        <CharString name="Alphaasperacuteiotasub">
          324 callgsubr
          421 -20 23 -20 hstemhm
          -190 -64 callgsubr
          -168 947 hintmask 0101001001000000
          -94 callsubr
          hintmask 0100101001000000
          -20 callsubr
          hintmask 0101010001000000
          -100 callsubr
          -385 201 callsubr
          302 -897 rmoveto
          38 37 31 39 17 hvcurveto
          hintmask 0111001001000000
          60 callgsubr
          hintmask 1001001001000000
          -47 callgsubr
          hintmask 0101010001000000
          88 callsubr
          hintmask 0101001010000000
          -418 625 rmoveto
          hintmask 0101001100000000
          -77 callgsubr
          hintmask 0101001010000000
          -98 callsubr
        </CharString>
        <CharString name="Alphaaspergrave">
          318 callgsubr
          -198 -64 callgsubr
          -168 955 hintmask 10010010
          -94 callsubr
          hintmask 01010010
          -20 callsubr
          hintmask 10100010
          162 callsubr
          hintmask 10010100
          607 callsubr
          hintmask 10011000
          -77 callgsubr
          hintmask 10010100
          -98 callsubr
        </CharString>
        <CharString name="Alphaaspergraveiotasub">
          324 callgsubr
          421 -20 23 -20 hstemhm
          -198 -64 callgsubr
          -168 955 hintmask 0101001001000000
          -94 callsubr
          hintmask 0100101001000000
          -20 callsubr
          hintmask 0101010001000000
          162 callsubr
          367 -864 rmoveto
          38 37 31 39 17 hvcurveto
          hintmask 0111001001000000
          60 callgsubr
          hintmask 1001001001000000
          -47 callgsubr
          hintmask 0101010001000000
          88 callsubr
          hintmask 0101001010000000
          -426 625 rmoveto
          hintmask 0101001100000000
          -77 callgsubr
          hintmask 0101001010000000
          -98 callsubr
        </CharString>
        <CharString name="Alphaasperiotasub">
          324 callgsubr
          424 -20 471 callsubr
          -750 -64 callgsubr
          hintmask 0101011000000000
          -94 callsubr
          hintmask 0100111000000000
          -20 callsubr
          hintmask 0101011000000000
          -100 callsubr
          -34 -476 rmoveto
          38 37 31 39 17 hvcurveto
          hintmask 0111011000000000
          60 callgsubr
          hintmask 1001011000000000
          -47 callgsubr
          hintmask 0101011000000000
          88 callsubr
          hintmask 0101010010000000
          -221 625 rmoveto
          hintmask 0101010100000000
          -77 callgsubr
          hintmask 0101010010000000
          -98 callsubr
        </CharString>
        <CharString name="Alphaaspertilde">
          195 callsubr
          232 374 callsubr
          -275 1032 -900 -64 callgsubr
          hintmask 1010101000000000
          -94 callsubr
          hintmask 0110101000000000
          -20 callsubr
          hintmask 1001011000000000
          -100 callsubr
          -321 236 -40 callgsubr
          -61 24 rlineto
          hintmask 1010101000000000
          -90 callgsubr
          hintmask 1001001000000000
          29 callgsubr
          hintmask 1001011000000000
          -42 callsubr
          hintmask 1010100010000000
          -84 -279 rmoveto
          hintmask 1010100100000000
          -77 callgsubr
          hintmask 1010100010000000
          -98 callsubr
        </CharString>
        <CharString name="Alphaaspertildeiotasub">
          324 callgsubr
          232 374 callsubr
          -275 1032 -900 -64 callgsubr
          hintmask 0101010101000000
          -94 callsubr
          hintmask 0100110101000000
          -20 callsubr
          hintmask 0101001011000000
          -100 callsubr
          -321 236 -40 callgsubr
          -61 24 rlineto
          hintmask 0101010101000000
          -90 callgsubr
          hintmask 0101001001000000
          29 callgsubr
          hintmask 0101001011000000
          -42 callsubr
          hintmask 0111010101000000
          287 -712 -5 callgsubr
          hintmask 1001010101000000
          -47 callgsubr
          hintmask 0111010101000000
          88 callsubr
          hintmask 0101010100010000
          -371 433 rmoveto
          hintmask 0101010100100000
          -77 callgsubr
          hintmask 0101010100010000
          -98 callsubr
        </CharString>
        <CharString name="Alphabreve">
          -1 callsubr
        </CharString>
        <CharString name="Alphagrave">
          500 callsubr
          471 callsubr
          -41 callsubr
          -404 350 -73 callgsubr
          endchar
        </CharString>
        <CharString name="Alphaiotasub">
          324 callgsubr
          471 callsubr
          hintmask 01010100
          -94 callsubr
          hintmask 01001100
          -20 callsubr
          hintmask 01010100
          -100 callsubr
          -34 -476 rmoveto
          38 37 31 39 17 hvcurveto
          hintmask 01110100
          60 callgsubr
          hintmask 10010100
          -47 callgsubr
          hintmask 01010100
          88 callsubr
          endchar
        </CharString>
        <CharString name="Alphalenis">
          195 callsubr
          424 -20 471 callsubr
          -695 117 -41 callsubr
          hintmask 10101000
          -395 203 -107 callgsubr
          endchar
        </CharString>
        <CharString name="Alphalenisacute">
          318 callgsubr
          -176 933 -874 117 247 callgsubr
          hintmask 10101000
          -100 callsubr
          -385 201 callsubr
          hintmask 10010100
          -238 -218 -107 callgsubr
          endchar
        </CharString>
        <CharString name="Alphalenisacuteiotasub">
          324 callgsubr
          421 -20 23 -20 hstemhm
          -176 933 -874 117 hintmask 0101001100000000
          -94 callsubr
          hintmask 0100101100000000
          -20 callsubr
          hintmask 0101010100000000
          -100 callsubr
          -385 201 callsubr
          302 -897 rmoveto
          38 37 31 39 17 hvcurveto
          hintmask 0111001100000000
          60 callgsubr
          hintmask 1001001100000000
          -47 callgsubr
          hintmask 0101010100000000
          88 callsubr
          hintmask 0101001010000000
          -540 679 -107 callgsubr
          endchar
        </CharString>
        <CharString name="Alphalenisgrave">
          318 callgsubr
          -206 963 -904 117 247 callgsubr
          hintmask 10101000
          162 callsubr
          hintmask 10010100
          -203 -185 -107 callgsubr
          endchar
        </CharString>
        <CharString name="Alphalenisgraveiotasub">
          324 callgsubr
          421 -20 23 -20 hstemhm
          -206 963 -904 117 hintmask 0101001100000000
          -94 callsubr
          hintmask 0100101100000000
          -20 callsubr
          hintmask 0101010100000000
          162 callsubr
          367 -864 rmoveto
          38 37 31 39 17 hvcurveto
          hintmask 0111001100000000
          60 callgsubr
          hintmask 1001001100000000
          -47 callgsubr
          hintmask 0101010100000000
          88 callsubr
          hintmask 0101001010000000
          -570 679 -107 callgsubr
          endchar
        </CharString>
        <CharString name="Alphalenisiotasub">
          324 callgsubr
          424 -20 471 callsubr
          -695 117 hintmask 01010110
          -94 callsubr
          hintmask 01001110
          -20 callsubr
          hintmask 01010110
          -100 callsubr
          -34 -476 rmoveto
          38 37 31 39 17 hvcurveto
          hintmask 01110110
          60 callgsubr
          hintmask 10010110
          -47 callgsubr
          hintmask 01010110
          88 callsubr
          hintmask 01010101
          -361 679 -107 callgsubr
          endchar
        </CharString>
        <CharString name="Alphalenistilde">
          195 callsubr
          232 374 callsubr
          -275 1032 -841 117 hintmask 10101010
          -94 callsubr
          hintmask 01101010
          -20 callsubr
          hintmask 10010110
          -100 callsubr
          -321 236 -40 callgsubr
          -61 24 rlineto
          hintmask 10101010
          -90 callgsubr
          hintmask 10010010
          29 callgsubr
          hintmask 10010110
          -42 callsubr
          hintmask 10101001
          -220 -225 -107 callgsubr
          endchar
        </CharString>
        <CharString name="Alphalenistildeiotasub">
          324 callgsubr
          232 374 callsubr
          -275 1032 -841 117 hintmask 0101010101000000
          -94 callsubr
          hintmask 0100110101000000
          -20 callsubr
          hintmask 0101001011000000
          -100 callsubr
          -321 236 -40 callgsubr
          -61 24 rlineto
          hintmask 0101010101000000
          -90 callgsubr
          hintmask 0101001001000000
          29 callgsubr
          hintmask 0101001011000000
          -42 callsubr
          hintmask 0111010101000000
          287 -712 -5 callgsubr
          hintmask 1001010101000000
          -47 callgsubr
          hintmask 0111010101000000
          88 callsubr
          hintmask 0101010100100000
          -507 487 -107 callgsubr
          endchar
        </CharString>
        <CharString name="Alphawithmacron">
          195 callsubr
          488 326 callgsubr
          -20 777 hintmask 10101000
          -94 callsubr
          hintmask 01101000
          -20 callsubr
          hintmask 10101000
          -100 callsubr
          -241 572 345 callgsubr
          hintmask 10011000
          47 50 rlineto
          hintmask 10101000
          177 callsubr
        </CharString>
        <CharString name="Alphawithtonos">
          500 callsubr
          471 callsubr
          -41 callsubr
          -402 201 callsubr
          endchar
        </CharString>
        <CharString name="Amacron">
          195 callsubr
          488 326 callgsubr
          -20 777 hintmask 10101000
          -94 callsubr
          hintmask 01101000
          -20 callsubr
          hintmask 10101000
          -100 callsubr
          -241 572 345 callgsubr
          hintmask 10011000
          47 50 rlineto
          hintmask 10101000
          177 callsubr
        </CharString>
        <CharString name="Aogonek">
          74 -294 99 195 254 -92 92 hstemhm
          418 134 hintmask 01010000
          -94 callsubr
          hintmask 00110000
          -20 callsubr
          hintmask 11010000
          31 -83 -28 -14 -25 -16 -22 -17 rlinecurve
          24 callgsubr
          202 hlineto
          -119 -47 -59 -67 -64 283 callsubr
          52 55 42 78 49 vhcurveto
          71 hlineto
          1 55 -71 12 -250 623 rlineto
          -174 -436 -26 callsubr
          endchar
        </CharString>
        <CharString name="Aring">
          195 callsubr
          455 51 116 89 hstemhm
          233 69 117 69 hintmask 10111100
          -94 callsubr
          hintmask 01111100
          -20 callsubr
          hintmask 10111100
          -100 callsubr
          -36 506 47 callsubr
          endchar
        </CharString>
        <CharString name="Atilde">
          195 callsubr
          528 133 471 callsubr
          hintmask 10010000
          -94 callsubr
          hintmask 01010000
          -18 callsubr
          74 446 rmoveto
          -36 callgsubr
          endchar
        </CharString>
        <CharString name="B">
          13 callsubr
        </CharString>
        <CharString name="Beta">
          13 callsubr
        </CharString>
        <CharString name="C">
          -19 callgsubr
          endchar
        </CharString>
        <CharString name="Cacute">
          -19 callgsubr
          -203 790 184 callsubr
        </CharString>
        <CharString name="Ccaron">
          -19 callgsubr
          -275 877 rmoveto
          -9 callsubr
          endchar
        </CharString>
        <CharString name="Ccedilla">
          -55 469 callsubr
          38 128 -101 -21 427 271 -104 104 hstemhm
          8 208 116 140 hintmask 10100111
          394 -17 rmoveto
          214 88 -31 93 -175 -54 rlineto
          -125 1 -61 105 134 vvcurveto
          86 25 90 52 56 vhcurveto
          41 -4 36 -8 33 -12 rrcurveto
          hintmask 10011011
          36 -143 rlineto
          124 hlineto
          hintmask 01010111
          15 56 15 103 -4 46 rrcurveto
          32 -47 -64 34 -107 hhcurveto
          -247 -116 -181 -181 -135 64 -167 212 -34 hvcurveto
          -49 -59 27 -47 287 callsubr
          rlinecurve
          hintmask 10100111
          123 callsubr
          21 38 rlineto
          12 12 0 1 12 hvcurveto
          endchar
        </CharString>
        <CharString name="Chi">
          31 callgsubr
        </CharString>
        <CharString name="D">
          50 callgsubr
          endchar
        </CharString>
        <CharString name="Dcaron">
          50 callgsubr
          136 828 rmoveto
          -9 callsubr
          endchar
        </CharString>
        <CharString name="Dcroat">
          10 callsubr
        </CharString>
        <CharString name="Delta">
          29 0 128 hstem
          17 659 vstem
          17 87 rmoveto
          39 -87 rlineto
          576 hlineto
          44 104 -259 586 -182 -45 17 -42 rlineto
          59 -142 rmoveto
          136 -331 -273 -4 rlineto
          endchar
        </CharString>
        <CharString name="E">
          -93 callgsubr
          endchar
        </CharString>
        <CharString name="Eacute">
          -67 callsubr
          hintmask 1010100100000000
          181 123 callgsubr
          hintmask 1010001100000000
          -399 -311 60 callsubr
        </CharString>
        <CharString name="Ecaron">
          -93 callgsubr
          77 194 rmoveto
          -9 callsubr
          endchar
        </CharString>
        <CharString name="Ecircumflex">
          -93 callgsubr
          79 103 97 callgsubr
        </CharString>
        <CharString name="Edieresis">
          -93 callgsubr
          182 58 rmoveto
          -104 callsubr
          257 -69 callgsubr
        </CharString>
        <CharString name="Edotaccent">
          -93 callgsubr
          315 58 -17 callgsubr
        </CharString>
        <CharString name="Egrave">
          -67 callsubr
          hintmask 1010100100000000
          433 281 callsubr
          hintmask 1010001100000000
          -402 -73 60 callsubr
        </CharString>
        <CharString name="Emacron">
          -91 callsubr
          76 109 -59 59 161 callsubr
          hintmask 1010001101000000
          518 callsubr
          hintmask 1010010101000000
          -64 callsubr
          hintmask 0110100101000000
          -3 callgsubr
          625 callgsubr
          114 callsubr
          hintmask 1010100100100000
          156 callsubr
          625 callgsubr
          -11 callsubr
          hintmask 1011000101000000
          168 callgsubr
          625 callgsubr
          15 callsubr
          97 160 345 callgsubr
          hintmask 1010100011000000
          47 50 rlineto
          625 callgsubr
          177 callsubr
        </CharString>
        <CharString name="Eogonek">
          3 -296 99 197 107.5 174.5 -20 callgsubr
          -104 104 367 callgsubr
          161 callsubr
          -178 134 hintmask 0110001100000000
          518 callsubr
          hintmask 0110010100000000
          510 callgsubr
          -82 callgsubr
          497 hlineto
          hintmask 1110100101000000
          -122 -47 -61 -68 -65 283 callsubr
          53 57 42 79 50 vhcurveto
          -4 4 8 60 6 95 -2 59 rlinecurve
          -115 9 -39 -113 rlineto
          hintmask 0110100100000000
          157 callgsubr
          hintmask 0110100010000000
          156 callsubr
          hintmask 0110100100000000
          -11 callsubr
          hintmask 0111000100000000
          168 callgsubr
          hintmask 0110100100000000
          15 callsubr
          endchar
        </CharString>
        <CharString name="Epsilon">
          -93 callgsubr
          endchar
        </CharString>
        <CharString name="Epsilonacute">
          -19 callsubr
        </CharString>
        <CharString name="Epsilonasper">
          -91 callsubr
          12 -20 hstemhm
          -189 -64 callgsubr
          128 210 -210 413 hintmask 1010001000100000
          518 callsubr
          hintmask 1010010000100000
          -64 callsubr
          hintmask 0110100000100000
          -3 callgsubr
          hintmask 1010100000100000
          114 callsubr
          hintmask 1010100000010000
          156 callsubr
          hintmask 1010100000100000
          -11 callsubr
          hintmask 1011000000100000
          168 callgsubr
          hintmask 1010100001100000
          15 callsubr
          -85 -263 rmoveto
          hintmask 1010100010100000
          -77 callgsubr
          hintmask 1010000101100000
          -102 callsubr
          hintmask 1010100001100000
          11 callsubr
        </CharString>
        <CharString name="Epsilonasperacute">
          -91 callsubr
          9 -20 23 -20 hstemhm
          -386 -64 callgsubr
          325 210 -210 413 hintmask 1010001000010000
          518 callsubr
          hintmask 1010010000010000
          -64 callsubr
          hintmask 0110100000010000
          -3 callgsubr
          hintmask 1010100000010000
          114 callsubr
          hintmask 1010100000001000
          156 callsubr
          hintmask 1010100000010000
          -11 callsubr
          hintmask 1011000000010000
          168 callgsubr
          hintmask 1010100000010000
          15 callsubr
          -215 467 callsubr
          hintmask 1010000100110000
          -97 callsubr
          -116 -272 rmoveto
          hintmask 1010100001010000
          -77 callgsubr
          hintmask 1010000010110000
          -102 callsubr
          hintmask 1010000100110000
          11 callsubr
        </CharString>
        <CharString name="Epsilonaspergrave">
          -91 callsubr
          9 -20 23 -20 hstemhm
          -394 -64 callgsubr
          333 210 -210 413 hintmask 1010001000010000
          518 callsubr
          hintmask 1010010000010000
          -64 callsubr
          hintmask 0110100000010000
          -3 callgsubr
          hintmask 1010100000010000
          114 callsubr
          hintmask 1010100000001000
          156 callsubr
          hintmask 1010100000010000
          -11 callsubr
          hintmask 1011000000010000
          168 callgsubr
          hintmask 1010100000010000
          15 callsubr
          -235 341 callgsubr
          hintmask 1010000100110000
          362 callgsubr
          hintmask 1010100001010000
          -77 callgsubr
          hintmask 1010000010110000
          -102 callsubr
          hintmask 1010000100110000
          11 callsubr
        </CharString>
        <CharString name="Epsilongrave">
          -1 callgsubr
          -234 341 callgsubr
          hintmask 1010000110000000
          278 callgsubr
        </CharString>
        <CharString name="Epsilonlenis">
          -91 callsubr
          12 -20 hstemhm
          -134 117 124 210 -210 413 hintmask 1010001001000000
          518 callsubr
          hintmask 1010010001000000
          -64 callsubr
          hintmask 0110100001000000
          -3 callgsubr
          hintmask 1010100001000000
          114 callsubr
          hintmask 1010100000100000
          156 callsubr
          hintmask 1010100001000000
          -11 callsubr
          hintmask 1011000001000000
          168 callgsubr
          hintmask 1010100011000000
          15 callsubr
          -225 -209 -88 callsubr
          hintmask 1010000111000000
          9 callsubr
          hintmask 1010100011000000
          156 callgsubr
        </CharString>
        <CharString name="Epsilonlenisacute">
          -91 callsubr
          9 -20 23 -20 hstemhm
          -313 117 303 210 -210 413 hintmask 1010001000100000
          518 callsubr
          hintmask 1010010000100000
          -64 callsubr
          hintmask 0110100000100000
          -3 callgsubr
          hintmask 1010100000100000
          114 callsubr
          hintmask 1010100000010000
          156 callsubr
          hintmask 1010100000100000
          -11 callsubr
          hintmask 1011000000100000
          168 callgsubr
          hintmask 1010100000100000
          15 callsubr
          -215 467 callsubr
          hintmask 1010000101100000
          -97 callsubr
          -238 -218 -88 callsubr
          hintmask 1010000011100000
          9 callsubr
          hintmask 1010000101100000
          156 callgsubr
        </CharString>
        <CharString name="Epsilonlenisgrave">
          -91 callsubr
          9 -20 23 -20 hstemhm
          -343 117 333 210 -210 413 hintmask 1010001000100000
          518 callsubr
          hintmask 1010010000100000
          -64 callsubr
          hintmask 0110100000100000
          -3 callgsubr
          hintmask 1010100000100000
          114 callsubr
          hintmask 1010100000010000
          156 callsubr
          hintmask 1010100000100000
          -11 callsubr
          hintmask 1011000000100000
          168 callgsubr
          hintmask 1010100000100000
          15 callsubr
          -235 341 callgsubr
          hintmask 1010000101100000
          81 callgsubr
          hintmask 1010000011100000
          9 callsubr
          hintmask 1010000101100000
          156 callgsubr
        </CharString>
        <CharString name="Epsilonwithtonos">
          -19 callsubr
        </CharString>
        <CharString name="Eta">
          14 callgsubr
        </CharString>
        <CharString name="Etaacute">
          -57 callsubr
          -221 397 327 callgsubr
          hintmask 10000111
          500 callgsubr
        </CharString>
        <CharString name="Etaasper">
          161 callgsubr
          12 -20 hstemhm
          -188 -64 callgsubr
          127 223 callgsubr
          hintmask 1000100011000000
          -51 callgsubr
          hintmask 0100100011000000
          223 callsubr
          hintmask 1000100011000000
          -92 callgsubr
          hintmask 1001000011000000
          -1 -55 rlineto
          hintmask 1010000011000000
          115 callgsubr
          hintmask 1000100011000000
          199 207 callgsubr
          -514 vlineto
          hintmask 1000100011000000
          -38 callsubr
          hintmask 1000100111000000
          -74 371 rmoveto
          hintmask 1000101011000000
          -77 callgsubr
          hintmask 1000010111000000
          -102 callsubr
          hintmask 1000100111000000
          11 callsubr
        </CharString>
        <CharString name="Etaasperacute">
          190 callsubr
          -385 -64 callgsubr
          324 223 callgsubr
          hintmask 1000100001100000
          -51 callgsubr
          hintmask 0100100001100000
          223 callsubr
          hintmask 1000100001100000
          -92 callgsubr
          hintmask 1001000001100000
          -1 -55 rlineto
          hintmask 1010000001100000
          115 callgsubr
          hintmask 1000100001100000
          199 354 callsubr
          -514 vlineto
          hintmask 1000100001100000
          -38 callsubr
          -204 397 327 callgsubr
          hintmask 1000010011100000
          -97 callsubr
          -116 -272 rmoveto
          hintmask 1000100101100000
          -77 callgsubr
          hintmask 1000001011100000
          -102 callsubr
          hintmask 1000010011100000
          11 callsubr
        </CharString>
        <CharString name="Etaasperacuteiotasub">
          369 callgsubr
          9 -20 23 -20 hstemhm
          -385 -64 callgsubr
          324 223 callgsubr
          hintmask 0101000100001100
          -51 callgsubr
          hintmask 0100100100001100
          223 callsubr
          hintmask 0101000100001100
          -92 callgsubr
          hintmask 0101001000001100
          -1 -55 rlineto
          hintmask 0101010000001100
          115 callgsubr
          hintmask 0101000100001100
          199 355 callgsubr
          -514 vlineto
          hintmask 0101000100001100
          -38 callsubr
          -204 397 327 callgsubr
          hintmask 0111000010001100
          -97 callsubr
          583 489 callgsubr
          hintmask 1001000100001100
          -47 callgsubr
          hintmask 0111000010001100
          88 callsubr
          hintmask 0101000100011100
          -699 625 rmoveto
          hintmask 0101000100101100
          -77 callgsubr
          hintmask 0101000001011100
          -102 callsubr
          hintmask 0101000100011100
          11 callsubr
        </CharString>
        <CharString name="Etaaspergrave">
          190 callsubr
          -393 -64 callgsubr
          332 223 callgsubr
          hintmask 1000100001100000
          -51 callgsubr
          hintmask 0100100001100000
          223 callsubr
          hintmask 1000100001100000
          -92 callgsubr
          hintmask 1001000001100000
          -1 -55 rlineto
          hintmask 1010000001100000
          115 callgsubr
          hintmask 1000100001100000
          199 354 callsubr
          -514 vlineto
          hintmask 1000100001100000
          -38 callsubr
          -224 372 callsubr
          hintmask 1000010011100000
          362 callgsubr
          hintmask 1000100101100000
          -77 callgsubr
          hintmask 1000001011100000
          -102 callsubr
          hintmask 1000010011100000
          11 callsubr
        </CharString>
        <CharString name="Etaaspergraveiotasub">
          369 callgsubr
          9 -20 23 -20 hstemhm
          -393 -64 callgsubr
          332 223 callgsubr
          hintmask 0101000100001100
          -51 callgsubr
          hintmask 0100100100001100
          223 callsubr
          hintmask 0101000100001100
          -92 callgsubr
          hintmask 0101001000001100
          -1 -55 rlineto
          hintmask 0101010000001100
          115 callgsubr
          hintmask 0101000100001100
          199 355 callgsubr
          -514 vlineto
          hintmask 0101000100001100
          -38 callsubr
          -224 372 callsubr
          hintmask 0111000010001100
          -79 callgsubr
          648 486 callsubr
          hintmask 1001000100001100
          -47 callgsubr
          hintmask 0111000010001100
          88 callsubr
          hintmask 0101000100011100
          -707 625 rmoveto
          hintmask 0101000100101100
          -77 callgsubr
          hintmask 0101000001011100
          -102 callsubr
          hintmask 0101000100011100
          11 callsubr
        </CharString>
        <CharString name="Etaasperiotasub">
          369 callgsubr
          12 -20 hstemhm
          -188 -64 callgsubr
          127 223 callgsubr
          hintmask 0101000100011000
          -51 callgsubr
          hintmask 0100100100011000
          223 callsubr
          hintmask 0101000100011000
          -92 callgsubr
          hintmask 0101001000011000
          -1 -55 rlineto
          hintmask 0101010000011000
          115 callgsubr
          hintmask 0101000100011000
          199 207 callsubr
          -514 vlineto
          hintmask 0101000100011000
          458 callgsubr
          hintmask 0111000100011000
          60 callgsubr
          hintmask 1001000100011000
          -47 callgsubr
          hintmask 0101000100011000
          88 callsubr
          hintmask 0101000100111000
          -502 625 rmoveto
          hintmask 0101000101011000
          -77 callgsubr
          hintmask 0101000010111000
          -102 callsubr
          hintmask 0101000100111000
          11 callsubr
        </CharString>
        <CharString name="Etaaspertilde">
          188 0 383 callsubr
          538 callsubr
          277 223 callgsubr
          hintmask 1010000100001100
          -51 callgsubr
          hintmask 0110000100001100
          223 callsubr
          hintmask 1010000100001100
          -92 callgsubr
          hintmask 1010001000001100
          -1 -55 rlineto
          hintmask 1010010000001100
          115 callgsubr
          hintmask 1010000100001100
          -22 callsubr
          hintmask 1010001000001100
          -1 -55 rlineto
          hintmask 1010010000001100
          -3 callsubr
          hintmask 1010000100001100
          -38 callsubr
          hintmask 1001000010001100
          -140 458 -40 callgsubr
          hintmask 1010000001001100
          -61 24 rlineto
          hintmask 1010100000001100
          -90 callgsubr
          hintmask 1001000100001100
          29 callgsubr
          hintmask 1001000010001100
          -42 callsubr
          hintmask 1010000100011100
          -84 -279 rmoveto
          hintmask 1010000100101100
          -77 callgsubr
          hintmask 1010000100011100
          -98 callsubr
        </CharString>
        <CharString name="Etaaspertildeiotasub">
          188 -222 194 -173 -21 160 34 28 383 callsubr
          538 callsubr
          277 223 callgsubr
          hintmask 010101000010000110000000
          -51 callgsubr
          hintmask 010011000010000110000000
          223 callsubr
          hintmask 010101000010000110000000
          -92 callgsubr
          hintmask 010101000100000110000000
          -1 -55 rlineto
          hintmask 010101001000000110000000
          115 callgsubr
          hintmask 010101000010000110000000
          -22 callsubr
          hintmask 010101000100000110000000
          -1 -55 rlineto
          hintmask 010101001000000110000000
          -3 callsubr
          hintmask 010101000010000110000000
          -38 callsubr
          hintmask 010100100001000110000000
          -140 458 -40 callgsubr
          hintmask 010101000000100110000000
          -61 24 rlineto
          hintmask 010101010000000110000000
          -90 callgsubr
          hintmask 010100100010000110000000
          29 callgsubr
          hintmask 010100100001000110000000
          -42 callsubr
          hintmask 011101000010000110000000
          568 -712 -5 callgsubr
          hintmask 100101000010000110000000
          -47 callgsubr
          hintmask 011101000010000110000000
          88 callsubr
          hintmask 010101000010001110000000
          -652 433 rmoveto
          hintmask 010101000010010110000000
          -77 callgsubr
          hintmask 010101000010001110000000
          -98 callsubr
        </CharString>
        <CharString name="Etagrave">
          -57 callsubr
          -223 372 callsubr
          hintmask 10000111
          278 callgsubr
        </CharString>
        <CharString name="Etaiotasub">
          369 callgsubr
          395 callgsubr
          hintmask 0101000111000000
          -51 callgsubr
          hintmask 0100100111000000
          223 callsubr
          hintmask 0101000111000000
          -92 callgsubr
          hintmask 0101001011000000
          -1 -55 rlineto
          hintmask 0101010011000000
          115 callgsubr
          hintmask 0101000111000000
          -22 callsubr
          hintmask 0101001011000000
          -1 -55 rlineto
          hintmask 0101010011000000
          -3 callsubr
          hintmask 0101000111000000
          458 callgsubr
          hintmask 0111000111000000
          60 callgsubr
          hintmask 1001000111000000
          -47 callgsubr
          hintmask 0101000111000000
          88 callsubr
          endchar
        </CharString>
        <CharString name="Etalenis">
          161 callgsubr
          12 -20 hstemhm
          -133 117 123 223 callgsubr
          hintmask 1000100110000000
          -51 callgsubr
          hintmask 0100100110000000
          223 callsubr
          hintmask 1000100110000000
          -92 callgsubr
          hintmask 1001000110000000
          -1 -55 rlineto
          hintmask 1010000110000000
          115 callgsubr
          hintmask 1000100110000000
          -22 callsubr
          hintmask 1001000110000000
          -1 -55 rlineto
          hintmask 1010000110000000
          -3 callsubr
          hintmask 1000100110000000
          -38 callsubr
          hintmask 1000011110000000
          -214 425 -107 callgsubr
          endchar
        </CharString>
        <CharString name="Etalenisacute">
          190 callsubr
          -312 117 302 223 callgsubr
          hintmask 1000100011000000
          -51 callgsubr
          hintmask 0100100011000000
          223 callsubr
          hintmask 1000100011000000
          -92 callgsubr
          hintmask 1001000011000000
          -1 -55 rlineto
          hintmask 1010000011000000
          115 callgsubr
          hintmask 1000100011000000
          199 207 callgsubr
          -514 vlineto
          hintmask 1000100011000000
          -38 callsubr
          -204 397 327 callgsubr
          hintmask 1000010111000000
          -97 callsubr
          -238 -218 -88 callsubr
          hintmask 1000001111000000
          9 callsubr
          hintmask 1000010111000000
          156 callgsubr
        </CharString>
        <CharString name="Etalenisacuteiotasub">
          369 callgsubr
          9 -20 23 -20 hstemhm
          -312 117 302 223 callgsubr
          hintmask 0101000100011000
          -51 callgsubr
          hintmask 0100100100011000
          223 callsubr
          hintmask 0101000100011000
          -92 callgsubr
          hintmask 0101001000011000
          -1 -55 rlineto
          hintmask 0101010000011000
          115 callgsubr
          hintmask 0101000100011000
          199 207 callsubr
          -514 vlineto
          hintmask 0101000100011000
          -38 callsubr
          -204 397 327 callgsubr
          hintmask 0111000010011000
          -97 callsubr
          583 -897 240 callgsubr
          -821 679 -107 callgsubr
          endchar
        </CharString>
        <CharString name="Etalenisgrave">
          190 callsubr
          -342 117 332 223 callgsubr
          hintmask 1000100011000000
          -51 callgsubr
          hintmask 0100100011000000
          223 callsubr
          hintmask 1000100011000000
          -92 callgsubr
          hintmask 1001000011000000
          -1 -55 rlineto
          hintmask 1010000011000000
          115 callgsubr
          hintmask 1000100011000000
          199 207 callgsubr
          -514 vlineto
          hintmask 1000100011000000
          -38 callsubr
          -224 372 callsubr
          hintmask 1000010111000000
          81 callgsubr
          hintmask 1000001111000000
          9 callsubr
          hintmask 1000010111000000
          156 callgsubr
        </CharString>
        <CharString name="Etalenisgraveiotasub">
          369 callgsubr
          9 -20 23 -20 hstemhm
          -342 117 332 223 callgsubr
          hintmask 0101000100011000
          -51 callgsubr
          hintmask 0100100100011000
          223 callsubr
          hintmask 0101000100011000
          -92 callgsubr
          hintmask 0101001000011000
          -1 -55 rlineto
          hintmask 0101010000011000
          115 callgsubr
          hintmask 0101000100011000
          199 207 callsubr
          -514 vlineto
          hintmask 0101000100011000
          -38 callsubr
          -224 372 callsubr
          hintmask 0111000010011000
          -79 callgsubr
          648 -864 240 callgsubr
          -851 679 -107 callgsubr
          endchar
        </CharString>
        <CharString name="Etalenisiotasub">
          369 callgsubr
          12 -20 hstemhm
          -133 117 123 223 callgsubr
          hintmask 0101000100110000
          -51 callgsubr
          hintmask 0100100100110000
          223 callsubr
          hintmask 0101000100110000
          -92 callgsubr
          hintmask 0101001000110000
          -1 -55 rlineto
          hintmask 0101010000110000
          115 callgsubr
          hintmask 0101000100110000
          -22 callsubr
          hintmask 0101001000110000
          -1 -55 rlineto
          hintmask 0101010000110000
          -3 callsubr
          hintmask 0101000100110000
          458 callgsubr
          hintmask 0111000100110000
          60 callgsubr
          hintmask 1001000100110000
          -47 callgsubr
          hintmask 0101000100110000
          88 callsubr
          hintmask 0101000011110000
          -642 679 -107 callgsubr
          endchar
        </CharString>
        <CharString name="Etalenistilde">
          188 0 383 callsubr
          -279 117 269 223 callgsubr
          hintmask 1010000100011000
          -51 callgsubr
          hintmask 0110000100011000
          223 callsubr
          hintmask 1010000100011000
          -92 callgsubr
          hintmask 1010001000011000
          -1 -55 rlineto
          hintmask 1010010000011000
          115 callgsubr
          hintmask 1010000100011000
          -22 callsubr
          hintmask 1010001000011000
          -1 -55 rlineto
          hintmask 1010010000011000
          -3 callsubr
          hintmask 1010000100011000
          -38 callsubr
          hintmask 1001000010011000
          -140 458 -40 callgsubr
          hintmask 1010000001011000
          -61 24 rlineto
          hintmask 1010100000011000
          -90 callgsubr
          hintmask 1001000100011000
          29 callgsubr
          hintmask 1001000010011000
          -42 callsubr
          hintmask 1010000100111000
          -220 -225 -107 callgsubr
          endchar
        </CharString>
        <CharString name="Etalenistildeiotasub">
          188 -222 194 -173 -21 160 34 28 383 callsubr
          -279 117 269 223 callgsubr
          hintmask 0101010000100011
          -51 callgsubr
          hintmask 0100110000100011
          223 callsubr
          hintmask 0101010000100011
          -92 callgsubr
          hintmask 0101010001000011
          -1 -55 rlineto
          hintmask 0101010010000011
          115 callgsubr
          hintmask 0101010000100011
          -22 callsubr
          hintmask 0101010001000011
          -1 -55 rlineto
          hintmask 0101010010000011
          -3 callsubr
          hintmask 0101010000100011
          -38 callsubr
          hintmask 0101001000010011
          -140 458 -40 callgsubr
          hintmask 0101010000001011
          -61 24 rlineto
          hintmask 0101010100000011
          -90 callgsubr
          hintmask 0101001000100011
          29 callgsubr
          hintmask 0101001000010011
          -42 callsubr
          hintmask 0111010000100011
          568 -712 -5 callgsubr
          hintmask 1001010000100011
          -47 callgsubr
          hintmask 0111010000100011
          88 callsubr
          hintmask 0101010000100111
          -788 487 -107 callgsubr
          endchar
        </CharString>
        <CharString name="Etawithtonos">
          -57 callsubr
          -221 397 327 callgsubr
          hintmask 10000111
          500 callgsubr
        </CharString>
        <CharString name="Eth">
          10 callsubr
        </CharString>
        <CharString name="Euro">
          -7 -22 125 95 76 -27 27 55 76 -27 27 37 228 -117 117 hstemhm
          -23 679 -570 199 hintmask 1101001100000000
          468 -22 rmoveto
          184 73 -30 90 -146 -38 -83 6 -53 34 -29 55 rlinecurve
          197 hlineto
          hintmask 1011001100000000
          41 49 rlineto
          hintmask 1101001100000000
          -6 27 rlineto
          hintmask 1101001010000000
          -255 hlineto
          -2 16 -1 17 18 vvcurveto
          4 263 vlineto
          hintmask 1100101100000000
          41 49 rlineto
          hintmask 1101001100000000
          -6 27 rlineto
          -290 hlineto
          13 61 28 51 40 36 46 3 45 -8 45 -21 rrcurveto
          hintmask 1101010100000000
          16 -85 rlineto
          90 hlineto
          hintmask 1101001010000000
          17 45 13 53 10 67 rrcurveto
          -1 hlineto
          40 -52 -77 23 -84 hhcurveto
          -195 -114 -124 -141 -35 hvcurveto
          -58 hlineto
          -41 -49 6 -27 rlineto
          81 hlineto
          -6 0 -7 -6 vvcurveto
          -12 1 -12 1 -12 vhcurveto
          -70 hlineto
          -41 -49 6 -27 rlineto
          120 hlineto
          hintmask 1101001100000000
          36 -117 102 -111 227 8 rrcurveto
          endchar
        </CharString>
        <CharString name="F">
          -8 0 55 -55 77 -77 80 175.5 109.5 78 223 -103 103 367 callgsubr
          hstemhm
          99 210 -210 429 hintmask 1001000110000000
          23 611 rmoveto
          hintmask 0011001010000000
          76 -13 rlineto
          -518 vlineto
          hintmask 1001010010000000
          -29 -15 -26 -15 -22 -18 6 -32 rcurveline
          404 428 callsubr
          hintmask 0101010010000000
          -124 22 rlineto
          184 vlineto
          hintmask 1001010001000000
          219 -11 rlineto
          123 vlineto
          hintmask 1001010010000000
          -219 -16 rlineto
          211 vlineto
          143 -10 rlineto
          hintmask 1001100010000000
          21 -115 400 callsubr
          hintmask 1001010010000000
          15 69 8 108 -2 46 rrcurveto
          -585 hlineto
          endchar
        </CharString>
        <CharString name="G">
          269 callgsubr
          hstemhm
          8 207 230 186 hintmask 0100001110000000
          624 callsubr
          hintmask 0010001110000000
          169 vlineto
          hintmask 0001001110000000
          76 22 rlineto
          hintmask 0100001110000000
          -1 47 rlineto
          -345 hlineto
          hintmask 1000101110000000
          99 callgsubr
          hintmask 0100010110000000
          583 callsubr
          hintmask 0100001110000000
          242 callgsubr
          -152 89 -205 303 16 hvcurveto
          endchar
        </CharString>
        <CharString name="Gamma">
          -47 0 55 -55 77 -77 84 367 215 -104 104 367 callgsubr
          205 callgsubr
          hintmask 10000011
          518 callsubr
          hintmask 00100101
          510 callgsubr
          hintmask 10001001
          -82 callgsubr
          412 428 callsubr
          hintmask 01001001
          -124 22 rlineto
          490 vlineto
          139 -10 rlineto
          hintmask 10010001
          168 callgsubr
          hintmask 10001001
          74 callsubr
          -580 hlineto
          endchar
        </CharString>
        <CharString name="Gbreve">
          269 callgsubr
          42 99 -99 165.5 hstemhm
          8 207 -32 320 callsubr
          -92 186 hintmask 0100001011001000
          624 callsubr
          hintmask 0010001011001000
          169 vlineto
          hintmask 0001001011001000
          76 22 rlineto
          hintmask 0100001011001000
          -1 47 rlineto
          -345 hlineto
          hintmask 1000101011001000
          99 callgsubr
          hintmask 0100010011001000
          583 callsubr
          hintmask 0100001011001000
          242 callgsubr
          -152 89 -205 303 16 hvcurveto
          hintmask 0100001010110000
          -37 748 253 callsubr
          hintmask 0100001101010000
          468 callsubr
          hintmask 0100001010101000
          311 callgsubr
          hintmask 0100001010110000
          325 callsubr
        </CharString>
        <CharString name="Gcommaaccent">
          269 callgsubr
          hstemhm
          8 207 102 140 -12 186 hintmask 0100001110000000
          400 -20 rmoveto
          hintmask 0100001101000000
          231 87 rlineto
          hintmask 0010001101000000
          169 vlineto
          hintmask 0001001110000000
          76 22 rlineto
          hintmask 0100001101000000
          -1 47 rlineto
          -345 hlineto
          hintmask 1000101101000000
          99 callgsubr
          hintmask 0100010101000000
          583 callsubr
          hintmask 0100001101000000
          242 callgsubr
          hvcurveto
          hintmask 0100001110000000
          -152 89 -205 303 16 vhcurveto
          -114 -270 -72 callsubr
        </CharString>
        <CharString name="H">
          14 callgsubr
        </CharString>
        <CharString name="I">
          -56 callgsubr
          endchar
        </CharString>
        <CharString name="Iacute">
          59 callgsubr
          hintmask 10000110
          62 123 callgsubr
          hintmask 10001010
          -281 -311 199 callsubr
        </CharString>
        <CharString name="Icircumflex">
          540 callgsubr
          -84 944 -346 343 callgsubr
          hintmask 10000101
          518 callgsubr
          hintmask 00101001
          -3 callsubr
          hintmask 10000011
          -50 callsubr
          hintmask 01000011
          -89 15 rlineto
          512 -99 callsubr
          -39 103 rmoveto
          68 -62 153 116 161 -116 64 62 rlineto
          hintmask 00010001
          -157 175 rlineto
          -131 hlineto
          endchar
        </CharString>
        <CharString name="Idieresis">
          -56 callgsubr
          64 58 rmoveto
          -104 callsubr
          257 -69 callgsubr
        </CharString>
        <CharString name="Idotaccent">
          -56 callgsubr
          197 58 -17 callgsubr
        </CharString>
        <CharString name="Igrave">
          59 callgsubr
          hintmask 10000110
          314 281 callsubr
          hintmask 10001010
          -284 -73 199 callsubr
        </CharString>
        <CharString name="Imacron">
          -233 -26 callgsubr
          71 326 callgsubr
          107 210 hintmask 1000011010000000
          31 821 401 callgsubr
          328 hlineto
          hintmask 1000010110000000
          47 50 rlineto
          hintmask 1000011010000000
          -5 59 rlineto
          -263 hlineto
          -31 -43 -5 -20 -39 hvcurveto
          hintmask 1000101010000000
          -1 -210 rmoveto
          hintmask 0011001010000000
          -3 callsubr
          hintmask 1000011010000000
          -50 callsubr
          hintmask 0100011010000000
          -89 15 rlineto
          512 -99 callsubr
          endchar
        </CharString>
        <CharString name="Iogonek">
          -239 -294 99 195 55 -55 84 514 121 callgsubr
          hstemhm
          50 134 -77 210 hintmask 10101001
          518 callgsubr
          hintmask 10110001
          -3 callsubr
          -82 callgsubr
          200 hlineto
          hintmask 10100110
          -119 -47 -59 -67 -64 283 callsubr
          52 55 42 78 49 vhcurveto
          hintmask 10100101
          88 hlineto
          hintmask 11000101
          -74 callsubr
          endchar
        </CharString>
        <CharString name="Iota">
          -56 callgsubr
          endchar
        </CharString>
        <CharString name="Iotaacute">
          12 callgsubr
          -231 467 callsubr
          hintmask 10000011
          500 callgsubr
        </CharString>
        <CharString name="Iotaasper">
          -33 callgsubr
          12 -20 hstemhm
          -189 -64 callgsubr
          128 270 callsubr
          hintmask 0100010011000000
          -89 15 rlineto
          512 -99 callsubr
          -84 -263 rmoveto
          hintmask 1000010101000000
          -77 callgsubr
          hintmask 1000001011000000
          -102 callsubr
          hintmask 0100010011000000
          11 callsubr
        </CharString>
        <CharString name="Iotaasperacute">
          219 callgsubr
          23 -20 hstemhm
          -386 -64 callgsubr
          325 210 hintmask 1000100000100000
          518 callgsubr
          hintmask 0011000000100000
          -3 callsubr
          hintmask 1000010000100000
          -50 callsubr
          hintmask 0100010000100000
          -89 15 rlineto
          512 -99 callsubr
          -214 467 callsubr
          hintmask 1000001001100000
          -97 callsubr
          -116 -272 rmoveto
          hintmask 1000010010100000
          -77 callgsubr
          hintmask 1000000101100000
          -102 callsubr
          hintmask 1000001001100000
          11 callsubr
        </CharString>
        <CharString name="Iotaaspergrave">
          219 callgsubr
          23 -20 hstemhm
          -394 -64 callgsubr
          333 210 hintmask 1000100000100000
          518 callgsubr
          hintmask 0011000000100000
          -3 callsubr
          hintmask 1000010000100000
          -50 callsubr
          hintmask 0100010000100000
          -89 15 rlineto
          512 -99 callsubr
          -234 341 callgsubr
          hintmask 1000001001100000
          362 callgsubr
          hintmask 1000010010100000
          -77 callgsubr
          hintmask 1000000101100000
          -102 callsubr
          hintmask 1000001001100000
          11 callsubr
        </CharString>
        <CharString name="Iotaaspertilde">
          540 callgsubr
          402 103 callgsubr
          -339 -64 callgsubr
          278 210 hintmask 1001010000000100
          32 callsubr
          377 428 callsubr
          hintmask 0101000010000100
          -89 15 rlineto
          512 -99 callsubr
          hintmask 1001000100000100
          -1 -55 rlineto
          hintmask 0011001000000100
          -3 callsubr
          hintmask 1001010000000100
          -38 callsubr
          hintmask 1000100001000100
          -141 458 -40 callgsubr
          hintmask 1001000000100100
          -61 24 rlineto
          hintmask 1001010000000100
          -90 callgsubr
          hintmask 1000100000000100
          29 callgsubr
          hintmask 1000100001000100
          -42 callsubr
          hintmask 1001010000001100
          -84 -279 rmoveto
          hintmask 1001010000010100
          -77 callgsubr
          hintmask 1001010000001100
          -98 callsubr
        </CharString>
        <CharString name="Iotabreve">
          -33 callgsubr
          62 99 -99 165.5 hstemhm
          38 109 -40 210 -48 123 hintmask 1000100101000000
          518 callgsubr
          hintmask 0011000101000000
          -3 callsubr
          hintmask 1000010101000000
          -50 callsubr
          hintmask 0100010101000000
          -89 15 rlineto
          512 -99 callsubr
          hintmask 1000010110100000
          187 62 253 callsubr
          hintmask 1000011000100000
          468 callsubr
          hintmask 1000010110000000
          311 callgsubr
          hintmask 1000010110100000
          325 callsubr
        </CharString>
        <CharString name="Iotadieresis">
          -56 callgsubr
          64 58 rmoveto
          -104 callsubr
          257 -69 callgsubr
        </CharString>
        <CharString name="Iotagrave">
          12 callgsubr
          -233 341 callgsubr
          hintmask 10000011
          278 callgsubr
        </CharString>
        <CharString name="Iotalenis">
          -33 callgsubr
          12 -20 hstemhm
          -134 117 124 210 hintmask 1000100010000000
          518 callgsubr
          hintmask 0011000010000000
          -3 callsubr
          hintmask 1000010010000000
          -50 callsubr
          hintmask 0100010110000000
          -89 15 rlineto
          512 -99 callsubr
          -224 -209 -88 callsubr
          hintmask 1000001110000000
          9 callsubr
          hintmask 0100010110000000
          156 callgsubr
        </CharString>
        <CharString name="Iotalenisacute">
          219 callgsubr
          23 -20 hstemhm
          -313 117 303 270 callsubr
          hintmask 0100010001000000
          -89 15 rlineto
          512 -99 callsubr
          -214 467 callsubr
          hintmask 1000001011000000
          -97 callsubr
          -238 -218 -88 callsubr
          hintmask 1000000111000000
          9 callsubr
          hintmask 1000001011000000
          156 callgsubr
        </CharString>
        <CharString name="Iotalenisgrave">
          219 callgsubr
          23 -20 hstemhm
          -343 117 333 270 callsubr
          hintmask 0100010001000000
          -89 15 rlineto
          512 -99 callsubr
          -234 341 callgsubr
          hintmask 1000001011000000
          81 callgsubr
          hintmask 1000000111000000
          9 callsubr
          hintmask 1000001011000000
          156 callgsubr
        </CharString>
        <CharString name="Iotalenistilde">
          540 callgsubr
          402 103 callgsubr
          -280 117 270 210 hintmask 1001010000001000
          32 callsubr
          377 428 callsubr
          hintmask 0101000010001000
          -89 15 rlineto
          512 -99 callsubr
          hintmask 1001000100001000
          -1 -55 rlineto
          hintmask 0011001000001000
          -3 callsubr
          hintmask 1001010000001000
          -38 callsubr
          hintmask 1000100001001000
          -141 458 -40 callgsubr
          hintmask 1001000000101000
          -61 24 rlineto
          hintmask 1001010000001000
          -90 callgsubr
          hintmask 1000100000001000
          29 callgsubr
          hintmask 1000100001001000
          -42 callsubr
          hintmask 1001010000011000
          -220 -225 -107 callgsubr
          endchar
        </CharString>
        <CharString name="Iotawithmacron">
          -33 callgsubr
          76 326 callgsubr
          107 210 hintmask 1000101010000000
          518 callgsubr
          hintmask 0011001010000000
          -3 callsubr
          hintmask 1000011010000000
          -50 callsubr
          hintmask 0100011010000000
          -89 15 rlineto
          512 -99 callsubr
          -21 160 345 callgsubr
          hintmask 1000010110000000
          47 50 rlineto
          hintmask 1000011010000000
          -5 59 rlineto
          -308 hlineto
          hintmask 0100011010000000
          -31 -43 -5 -20 -39 hvcurveto
          endchar
        </CharString>
        <CharString name="Iotawithtonos">
          12 callgsubr
          -231 467 callsubr
          hintmask 10000011
          500 callgsubr
        </CharString>
        <CharString name="J">
          -242 597 69 429 callgsubr
          hstemhm
          112 209 hintmask 01010000
          518 callsubr
          hintmask 10010000
          81 -14 rlineto
          -445 vlineto
          -168 -59 -62 -84 -53 vhcurveto
          34 -59 rlineto
          193 58 125 85 224 vvcurveto
          hintmask 00110000
          404 vlineto
          33 16 28 18 25 19 -6 32 rcurveline
          -369 hlineto
          endchar
        </CharString>
        <CharString name="K">
          38 callgsubr
        </CharString>
        <CharString name="KORONIS">
          425 callsubr
          hstem
          120 117 vstem
          61 585 -107 callgsubr
          endchar
        </CharString>
        <CharString name="Kappa">
          38 callgsubr
        </CharString>
        <CharString name="Kcommaaccent">
          120 0 55 556 313 callsubr
          50 140 hintmask 10111000
          183 callsubr
          hintmask 11011000
          -1 -55 63 -11 -197 -211 rlineto
          hintmask 10111000
          193 78 callgsubr
          -514 vlineto
          hintmask 10111000
          -38 callsubr
          314 -322 -72 callsubr
        </CharString>
        <CharString name="L">
          137 callsubr
          134 callsubr
          endchar
        </CharString>
        <CharString name="Lacute">
          137 callsubr
          hintmask 01001100
          79 123 callgsubr
          hintmask 01010100
          -298 -311 rmoveto
          hintmask 10100100
          77 -13 rlineto
          -514 vlineto
          hintmask 01001100
          16 callgsubr
          endchar
        </CharString>
        <CharString name="Lamda">
          74 0 55 hstem
          -20 777 vstem
          -94 callgsubr
          -81 14 137 370 133 -360 -28 -14 -25 -16 -22 -17 rlinecurve
          24 callgsubr
          362 hlineto
          1 55 -71 12 -250 623 rlineto
          endchar
        </CharString>
        <CharString name="Lcaron">
          137 callsubr
          187 143 hintmask 01010110
          518 callgsubr
          hintmask 10100110
          -3 callsubr
          hintmask 01001110
          16 callgsubr
          419 -204 56 callsubr
        </CharString>
        <CharString name="Lcommaaccent">
          137 callsubr
          -26 140 134 callsubr
          hintmask 01001010
          229 -956 -72 callsubr
        </CharString>
        <CharString name="Lslash">
          -9 0 84 -84 266.5 331.5 121 callgsubr
          hstemhm
          122 210 hintmask 01010100
          45 611 rmoveto
          hintmask 10100100
          77 -13 rlineto
          -271 vlineto
          -100 -44 27 -62 73 32 rlineto
          -169 125 callgsubr
          243 vlineto
          100 44 17 51 -16 25 -101 -44 rlineto
          162 -99 callsubr
          endchar
        </CharString>
        <CharString name="M">
          -2 callgsubr
        </CharString>
        <CharString name="Mu">
          -2 callgsubr
        </CharString>
        <CharString name="N">
          30 callsubr
        </CharString>
        <CharString name="NULL">
          -67 endchar
        </CharString>
        <CharString name="Nacute">
          101 callsubr
          230 123 callgsubr
          -457 -890 -24 callsubr
          endchar
        </CharString>
        <CharString name="Ncaron">
          33 callgsubr
          136 828 rmoveto
          -9 callsubr
          endchar
        </CharString>
        <CharString name="Ncommaaccent">
          135 71 callgsubr
          -77 -21 625 55 -32 32 hstemhm
          107 142 105 140 67 450 callgsubr
          hintmask 1000011110000000
          546 callgsubr
          hintmask 0100011110000000
          263 callsubr
          hintmask 0001011110000000
          280 -413 rlineto
          hintmask 1000011110000000
          90 callsubr
          hintmask 1000101110000000
          -1 -55 98 -17 rlineto
          -224 vlineto
          14 -123 rlineto
          hintmask 1000011110000000
          -276 418 rlineto
          1 -266 vlineto
          hintmask 0010101110000000
          -1 -55 75 -15 rlineto
          -512 vlineto
          hintmask 1000011110000000
          -38 callsubr
          301 -322 -72 callsubr
        </CharString>
        <CharString name="Ntilde">
          135 71 callgsubr
          -77 -21 625 55 -32 32 116 133 hstemhm
          107 142 312 450 callgsubr
          hintmask 1000011110000000
          546 callgsubr
          hintmask 0100011110000000
          263 callsubr
          hintmask 0001011110000000
          280 -413 rlineto
          hintmask 1000011110000000
          90 callsubr
          hintmask 1000101110000000
          -1 -55 98 -17 rlineto
          -224 vlineto
          14 -123 rlineto
          hintmask 1000011110000000
          -276 418 rlineto
          1 -266 vlineto
          hintmask 0010101110000000
          -1 -55 75 -15 rlineto
          -512 vlineto
          hintmask 1000011110000000
          -38 callsubr
          471 668 rmoveto
          -36 callgsubr
          endchar
        </CharString>
        <CharString name="Nu">
          30 callsubr
        </CharString>
        <CharString name="O">
          467 callgsubr
          221 callgsubr
          354 -20 -103 callsubr
          endchar
        </CharString>
        <CharString name="OE">
          347 -18 105 -87 113.5 -113.5 222.5 59.5 -20 callgsubr
          -106 106 -91 110 hstemhm
          8 207 221 210 hintmask 1001001110000000
          215 340 rmoveto
          96 26 90 46 40 vhcurveto
          7 21 21 2 22 hhcurveto
          27 32 -4 -14 26 hvcurveto
          -456 vlineto
          -9 -21 -23 -5 -21 hhcurveto
          -107 -49 122 131 hvcurveto
          150 -358 rmoveto
          hintmask 0101010110000000
          41 41 5 13 39 hvcurveto
          466 hlineto
          hintmask 0011010110000000
          -3 callgsubr
          hintmask 0101010110000000
          -38 -108 -165 -11 rlineto
          178 vlineto
          202 301 callgsubr
          -202 -17 rlineto
          189 vlineto
          158 -10 rlineto
          hintmask 0101100110000000
          20 -104 400 callsubr
          hintmask 0101010110000000
          74 callsubr
          -477 hlineto
          hintmask 0101001110000000
          12 -36 -39 7 -42 hhcurveto
          -188 -170 -131 -224 hvcurveto
          hintmask 1001001110000000
          -239 186 -109 171 vhcurveto
          endchar
        </CharString>
        <CharString name="Oacute">
          467 callgsubr
          221 callgsubr
          354 -20 -103 callsubr
          -173 688 184 callsubr
        </CharString>
        <CharString name="Ocircumflex">
          467 callgsubr
          221 callgsubr
          354 -20 -103 callsubr
          -243 684 97 callgsubr
        </CharString>
        <CharString name="Odieresis">
          467 callgsubr
          221 callgsubr
          354 -20 -103 callsubr
          117 639 -37 callgsubr
        </CharString>
        <CharString name="Ograve">
          467 callgsubr
          221 callgsubr
          354 -20 -103 callsubr
          79 599 152 callsubr
          endchar
        </CharString>
        <CharString name="Ohungarumlaut">
          467 callgsubr
          221 callgsubr
          354 -20 -103 callsubr
          9 676 164 callgsubr
          endchar
        </CharString>
        <CharString name="Omacron">
          467 callgsubr
          56 326 callgsubr
          213 callgsubr
          hintmask 11101100
          354 -20 -103 callsubr
          -225 741 345 callgsubr
          hintmask 11011100
          47 50 rlineto
          hintmask 11101100
          177 callsubr
        </CharString>
        <CharString name="Omega">
          154 0 -68 callsubr
          356.5 107 hstemhm
          69 144 callgsubr
          hintmask 01011100
          -99 callgsubr
          hintmask 00111100
          28 callgsubr
          hintmask 10011100
          -87 callsubr
          hintmask 01011100
          -28 callgsubr
          hintmask 00111100
          148 callgsubr
          hintmask 01011100
          91 callsubr
          endchar
        </CharString>
        <CharString name="Omegaacute">
          -67 callgsubr
          -151 429 327 callgsubr
          hintmask 01001110
          500 callgsubr
        </CharString>
        <CharString name="Omegaasper">
          154 0 -68 callsubr
          356.5 107 -8 -20 hstemhm
          -118 -64 callgsubr
          19 144 callgsubr
          hintmask 0101000110000000
          -99 callgsubr
          hintmask 0011000110000000
          28 callgsubr
          hintmask 1001000110000000
          -87 callsubr
          hintmask 0101000110000000
          -28 callgsubr
          hintmask 0011000110000000
          148 callgsubr
          hintmask 0101000110000000
          91 callsubr
          hintmask 0101001110000000
          -4 403 rmoveto
          hintmask 0101010110000000
          -77 callgsubr
          hintmask 0100101110000000
          -102 callsubr
          hintmask 0101001110000000
          11 callsubr
        </CharString>
        <CharString name="Omegaasperacute">
          66 callsubr
          -315 -64 callgsubr
          216 144 callgsubr
          hintmask 0101000111000000
          -99 callgsubr
          hintmask 0011000111000000
          28 callgsubr
          hintmask 1001000111000000
          -87 callsubr
          hintmask 0101000111000000
          -28 callgsubr
          hintmask 0011000111000000
          148 callgsubr
          hintmask 0101000111000000
          91 callsubr
          -134 429 327 callgsubr
          hintmask 0100100111000000
          -97 callsubr
          -116 -272 rmoveto
          hintmask 0101001011000000
          -77 callgsubr
          hintmask 0100010111000000
          -102 callsubr
          hintmask 0100100111000000
          11 callsubr
        </CharString>
</ttFont>
